<?xml version="1.0" encoding="utf-8"?>
<!-- Generator: Adobe Illustrator 22.1.0, SVG Export Plug-In . SVG Version: 6.00 Build 0)  -->
<svg version="1.1" id="Layer_1" xmlns="http://www.w3.org/2000/svg" xmlns:xlink="http://www.w3.org/1999/xlink" x="0px" y="0px"
	 viewBox="0 0 656.4 228" style="enable-background:new 0 0 656.4 228;" xml:space="preserve">
<style type="text/css">
	.st0{opacity:0.2;}
	.st1{opacity:0.2;fill:#00C3FF;}
	.st2{opacity:5.000000e-02;}
	.st3{fill:#FFFFFF;}
	.st4{opacity:0.5;fill:#FFFFFF;}
</style>
<g class="st0">
	<circle class="st1" cx="504.4" cy="29.1" r="27.7"/>
	<path class="st2" d="M524,48.6c-10.8,10.8-28.4,10.8-39.2,0c-0.6-0.6-1.2-1.3-1.8-2c10.9,9,27,8.4,37.2-1.8
		C530.4,34.7,531,18.6,522,7.7c0.7,0.6,1.3,1.2,2,1.8C534.8,20.3,534.8,37.8,524,48.6z"/>
	<ellipse transform="matrix(0.7885 -0.6151 0.6151 0.7885 97.228 305.0816)" class="st3" cx="492.2" cy="11.2" rx="6" ry="2"/>
	<ellipse transform="matrix(0.3913 -0.9203 0.9203 0.3913 276.8356 458.4166)" class="st3" cx="485" cy="19.9" rx="3.5" ry="2"/>
	<ellipse transform="matrix(0.773 -0.6345 0.6345 0.773 87.2333 340.7954)" class="st4" cx="519.8" cy="48.5" rx="4" ry="1.1"/>
	<ellipse transform="matrix(0.5 -0.866 0.866 0.5 225.655 476.3664)" class="st4" cx="525.4" cy="42.8" rx="2.3" ry="1.1"/>
</g>
<g class="st0">
	<circle class="st1" cx="247.9" cy="75.1" r="27.7"/>
	<path class="st2" d="M267.5,94.7c-10.8,10.8-28.4,10.8-39.2,0c-0.6-0.6-1.2-1.3-1.8-2c10.9,9,27,8.4,37.2-1.8s10.8-26.3,1.8-37.2
		c0.7,0.6,1.3,1.2,2,1.8C278.3,66.3,278.3,83.9,267.5,94.7z"/>
	<ellipse transform="matrix(0.7885 -0.6151 0.6151 0.7885 14.653 157.0428)" class="st3" cx="235.6" cy="57.2" rx="6" ry="2"/>
	<ellipse transform="matrix(0.3913 -0.9203 0.9203 0.3913 78.3423 250.3793)" class="st3" cx="228.4" cy="66" rx="3.5" ry="2"/>
	<ellipse transform="matrix(0.773 -0.6345 0.6345 0.773 -0.2111 188.5002)" class="st4" cx="263.3" cy="94.5" rx="4" ry="1.1"/>
	<ellipse transform="matrix(0.5 -0.866 0.866 0.5 57.5361 277.237)" class="st4" cx="268.9" cy="88.8" rx="2.3" ry="1.1"/>
</g>
<g class="st0">
	<circle class="st1" cx="424.5" cy="149.4" r="17.9"/>
	<path class="st2" d="M437.2,162c-7,7-18.3,7-25.3,0c-0.4-0.4-0.8-0.8-1.2-1.3c7,5.8,17.4,5.4,24-1.2c6.6-6.6,7-17,1.2-24
		c0.4,0.4,0.9,0.8,1.3,1.2C444.2,143.7,444.2,155,437.2,162z"/>
	<ellipse transform="matrix(0.7885 -0.6151 0.6151 0.7885 3.355 285.4048)" class="st3" cx="416.6" cy="137.8" rx="3.9" ry="1.3"/>
	<ellipse transform="matrix(0.3913 -0.9203 0.9203 0.3913 118.7275 466.4395)" class="st3" cx="412" cy="143.5" rx="2.2" ry="1.3"/>
	<ellipse transform="matrix(0.773 -0.6345 0.6345 0.773 -4.0864 312.3895)" class="st4" cx="434.4" cy="161.9" rx="2.6" ry="0.7"/>
	<ellipse transform="matrix(0.5 -0.866 0.866 0.5 82.021 458.4489)" class="st4" cx="438" cy="158.2" rx="1.5" ry="0.7"/>
</g>
<g class="st0">
	<circle class="st1" cx="638.5" cy="68.3" r="17.9"/>
	<path class="st2" d="M651.2,80.9c-7,7-18.3,7-25.3,0c-0.4-0.4-0.8-0.8-1.2-1.3c7,5.8,17.4,5.4,24-1.2c6.6-6.6,7-17,1.2-24
		c0.4,0.4,0.9,0.8,1.3,1.2C658.2,62.6,658.2,73.9,651.2,80.9z"/>
	<ellipse transform="matrix(0.7885 -0.6151 0.6151 0.7885 98.489 399.8839)" class="st3" cx="630.6" cy="56.8" rx="3.9" ry="1.3"/>
	<ellipse transform="matrix(0.3913 -0.9203 0.9203 0.3913 323.5896 614.029)" class="st3" cx="626" cy="62.4" rx="2.2" ry="1.3"/>
	<ellipse transform="matrix(0.773 -0.6345 0.6345 0.773 95.9366 429.758)" class="st4" cx="648.4" cy="80.8" rx="2.6" ry="0.7"/>
	<ellipse transform="matrix(0.5 -0.866 0.866 0.5 259.2287 603.244)" class="st4" cx="652" cy="77.1" rx="1.5" ry="0.7"/>
</g>
<g class="st0">
	<circle class="st1" cx="128.7" cy="210.7" r="17.9"/>
	<path class="st2" d="M141.3,223.4c-7,7-18.3,7-25.3,0c-0.4-0.4-0.8-0.8-1.2-1.3c7,5.8,17.4,5.4,24-1.2c6.6-6.6,7-17,1.2-24
		c0.4,0.4,0.9,0.8,1.3,1.2C148.3,205.1,148.3,216.4,141.3,223.4z"/>
	
		<ellipse transform="matrix(0.7885 -0.6151 0.6151 0.7885 -96.9719 116.4277)" class="st3" cx="120.8" cy="199.2" rx="3.9" ry="1.3"/>
	
		<ellipse transform="matrix(0.3913 -0.9203 0.9203 0.3913 -117.813 231.5574)" class="st3" cx="116.1" cy="204.8" rx="2.2" ry="1.3"/>
	
		<ellipse transform="matrix(0.773 -0.6345 0.6345 0.773 -110.1894 138.6321)" class="st4" cx="138.6" cy="223.3" rx="2.6" ry="0.7"/>
	<ellipse transform="matrix(0.5 -0.866 0.866 0.5 -119.0401 232.9399)" class="st4" cx="142.2" cy="219.6" rx="1.5" ry="0.7"/>
</g>
<g class="st0">
	<circle class="st1" cx="17.9" cy="66.2" r="17.9"/>
	<path class="st2" d="M30.5,78.9c-7,7-18.3,7-25.3,0c-0.4-0.4-0.8-0.8-1.2-1.3c7,5.8,17.4,5.4,24-1.2s7-17,1.2-24
		c0.4,0.4,0.9,0.8,1.3,1.2C37.5,60.6,37.5,71.9,30.5,78.9z"/>
	<ellipse transform="matrix(0.7885 -0.6151 0.6151 0.7885 -31.555 17.6885)" class="st3" cx="9.9" cy="54.7" rx="3.9" ry="1.3"/>
	<ellipse transform="matrix(0.3913 -0.9203 0.9203 0.3913 -52.3267 41.616)" class="st3" cx="5.3" cy="60.4" rx="2.2" ry="1.3"/>
	<ellipse transform="matrix(0.773 -0.6345 0.6345 0.773 -43.6919 35.5051)" class="st4" cx="27.8" cy="78.8" rx="2.6" ry="0.7"/>
	<ellipse transform="matrix(0.5 -0.866 0.866 0.5 -49.3422 64.7113)" class="st4" cx="31.4" cy="75.1" rx="1.5" ry="0.7"/>
</g>
</svg>
