<?xml version="1.0" encoding="utf-8"?>
<!-- Generator: Adobe Illustrator 22.1.0, SVG Export Plug-In . SVG Version: 6.00 Build 0)  -->
<svg version="1.1" id="Layer_1" xmlns="http://www.w3.org/2000/svg" xmlns:xlink="http://www.w3.org/1999/xlink" x="0px" y="0px"
	 viewBox="0 0 380 184" style="enable-background:new 0 0 380 184;" xml:space="preserve">
<style type="text/css">
	.st0{opacity:0.2;}
	.st1{opacity:0.2;fill:#00C3FF;}
	.st2{opacity:5.000000e-02;}
	.st3{fill:#FFFFFF;}
	.st4{opacity:0.5;fill:#FFFFFF;}
</style>
<g class="st0">
	<circle class="st1" cx="212" cy="22.6" r="22.6"/>
	<path class="st2" d="M228,38.6c-8.8,8.8-23.1,8.8-31.9,0c-0.5-0.5-1-1.1-1.5-1.6c8.9,7.3,22,6.8,30.3-1.5s8.8-21.5,1.5-30.3
		c0.6,0.5,1.1,0.9,1.6,1.5C236.8,15.4,236.8,29.7,228,38.6z"/>
	<ellipse transform="matrix(0.7885 -0.6151 0.6151 0.7885 37.8013 125.9493)" class="st3" cx="202" cy="8" rx="4.9" ry="1.6"/>
	
		<ellipse transform="matrix(0.3913 -0.9203 0.9203 0.3913 105.4408 189.7223)" class="st3" cx="196.1" cy="15.2" rx="2.8" ry="1.6"/>
	<ellipse transform="matrix(0.773 -0.6345 0.6345 0.773 26.5785 151.198)" class="st4" cx="224.5" cy="38.5" rx="3.3" ry="0.9"/>
	<ellipse transform="matrix(0.5 -0.866 0.866 0.5 85.308 215.2973)" class="st4" cx="229.1" cy="33.8" rx="1.9" ry="0.9"/>
</g>
<g class="st0">
	<circle class="st1" cx="252.2" cy="112.8" r="12.5"/>
	<path class="st2" d="M261.1,121.6c-4.9,4.9-12.8,4.9-17.7,0c-0.3-0.3-0.6-0.6-0.8-0.9c4.9,4.1,12.2,3.8,16.8-0.8
		c4.6-4.6,4.9-11.9,0.8-16.8c0.3,0.3,0.6,0.5,0.9,0.8C265.9,108.8,265.9,116.7,261.1,121.6z"/>
	
		<ellipse transform="matrix(0.7885 -0.6151 0.6151 0.7885 -12.2281 173.864)" class="st3" cx="246.7" cy="104.7" rx="2.7" ry="0.9"/>
	
		<ellipse transform="matrix(0.3913 -0.9203 0.9203 0.3913 48.1604 290.1339)" class="st3" cx="243.4" cy="108.7" rx="1.6" ry="0.9"/>
	<ellipse transform="matrix(0.773 -0.6345 0.6345 0.773 -18.2942 192.01)" class="st4" cx="259.1" cy="121.6" rx="1.8" ry="0.5"/>
	<ellipse transform="matrix(0.5 -0.866 0.866 0.5 27.7999 286.0854)" class="st4" cx="261.7" cy="119" rx="1" ry="0.5"/>
</g>
<g class="st0">
	<circle class="st1" cx="357.4" cy="133.1" r="22.6"/>
	<path class="st2" d="M373.4,149.1c-8.8,8.8-23.1,8.8-31.9,0c-0.5-0.5-1-1.1-1.5-1.6c8.9,7.3,22,6.8,30.3-1.5s8.8-21.5,1.5-30.3
		c0.6,0.5,1.1,0.9,1.6,1.5C382.2,125.9,382.2,140.3,373.4,149.1z"/>
	<ellipse transform="matrix(0.7885 -0.6151 0.6151 0.7885 0.582 238.7425)" class="st3" cx="347.4" cy="118.5" rx="4.9" ry="1.6"/>
	
		<ellipse transform="matrix(0.3913 -0.9203 0.9203 0.3913 92.2316 390.7658)" class="st3" cx="341.5" cy="125.7" rx="2.8" ry="1.6"/>
	<ellipse transform="matrix(0.773 -0.6345 0.6345 0.773 -10.5278 268.5215)" class="st4" cx="369.9" cy="149" rx="3.3" ry="0.9"/>
	<ellipse transform="matrix(0.5 -0.866 0.866 0.5 62.2922 396.4471)" class="st4" cx="374.5" cy="144.3" rx="1.9" ry="0.9"/>
</g>
<g class="st0">
	<circle class="st1" cx="173.9" cy="171.5" r="12.5"/>
	<path class="st2" d="M182.7,180.3c-4.9,4.9-12.8,4.9-17.7,0c-0.3-0.3-0.6-0.6-0.8-0.9c4.9,4.1,12.2,3.8,16.8-0.8
		c4.6-4.6,4.9-11.9,0.8-16.8c0.3,0.3,0.6,0.5,0.9,0.8C187.6,167.5,187.6,175.5,182.7,180.3z"/>
	
		<ellipse transform="matrix(0.7885 -0.6151 0.6151 0.7885 -64.908 138.1139)" class="st3" cx="168.3" cy="163.4" rx="2.7" ry="0.9"/>
	
		<ellipse transform="matrix(0.3913 -0.9203 0.9203 0.3913 -53.5385 253.802)" class="st3" cx="165.1" cy="167.4" rx="1.6" ry="0.9"/>
	<ellipse transform="matrix(0.773 -0.6345 0.6345 0.773 -73.326 155.653)" class="st4" cx="180.8" cy="180.3" rx="1.8" ry="0.5"/>
	<ellipse transform="matrix(0.5 -0.866 0.866 0.5 -62.2037 247.6195)" class="st4" cx="183.3" cy="177.7" rx="1" ry="0.5"/>
</g>
<g class="st0">
	<circle class="st1" cx="108.9" cy="76.5" r="16.7"/>
	<path class="st2" d="M120.8,88.3c-6.5,6.5-17.1,6.5-23.7,0c-0.4-0.4-0.7-0.8-1.1-1.2c6.6,5.4,16.3,5.1,22.5-1.1s6.5-15.9,1.1-22.5
		c0.4,0.3,0.8,0.7,1.2,1.1C127.3,71.2,127.3,81.8,120.8,88.3z"/>
	<ellipse transform="matrix(0.7885 -0.6151 0.6151 0.7885 -18.9383 76.3179)" class="st3" cx="101.5" cy="65.7" rx="3.6" ry="1.2"/>
	<ellipse transform="matrix(0.3913 -0.9203 0.9203 0.3913 -6.1993 132.5923)" class="st3" cx="97.1" cy="71" rx="2.1" ry="1.2"/>
	<ellipse transform="matrix(0.773 -0.6345 0.6345 0.773 -29.1647 95.0274)" class="st4" cx="118.2" cy="88.3" rx="2.4" ry="0.7"/>
	<ellipse transform="matrix(0.5 -0.866 0.866 0.5 -12.638 147.6771)" class="st4" cx="121.6" cy="84.8" rx="1.4" ry="0.7"/>
</g>
<g class="st0">
	<circle class="st1" cx="12.5" cy="105.1" r="12.5"/>
	<path class="st2" d="M21.4,113.9c-4.9,4.9-12.8,4.9-17.7,0c-0.3-0.3-0.6-0.6-0.8-0.9c4.9,4.1,12.2,3.8,16.8-0.8s4.9-11.9,0.8-16.8
		c0.3,0.3,0.6,0.5,0.9,0.8C26.2,101.1,26.2,109,21.4,113.9z"/>
	<ellipse transform="matrix(0.7885 -0.6151 0.6151 0.7885 -58.1927 24.7991)" class="st3" cx="7" cy="97" rx="2.7" ry="0.9"/>
	<ellipse transform="matrix(0.3913 -0.9203 0.9203 0.3913 -90.6458 64.8598)" class="st3" cx="3.7" cy="101" rx="1.6" ry="0.9"/>
	<ellipse transform="matrix(0.773 -0.6345 0.6345 0.773 -67.8262 38.1813)" class="st4" cx="19.4" cy="113.9" rx="1.8" ry="0.5"/>
	<ellipse transform="matrix(0.5 -0.866 0.866 0.5 -85.3735 74.6478)" class="st4" cx="22" cy="111.3" rx="1" ry="0.5"/>
</g>
</svg>
