<?xml version="1.0" encoding="utf-8"?>
<!-- Generator: Adobe Illustrator 22.1.0, SVG Export Plug-In . SVG Version: 6.00 Build 0)  -->
<svg version="1.1" id="Layer_1" xmlns="http://www.w3.org/2000/svg" xmlns:xlink="http://www.w3.org/1999/xlink" x="0px" y="0px"
	 viewBox="0 0 475 229" style="enable-background:new 0 0 475 229;" xml:space="preserve">
<style type="text/css">
	.st0{opacity:0.5;}
	.st1{opacity:0.2;fill:#00C3FF;}
	.st2{opacity:5.000000e-02;}
	.st3{fill:#FFFFFF;}
	.st4{opacity:0.5;fill:#FFFFFF;}
</style>
<g class="st0">
	<circle class="st1" cx="265.3" cy="28.5" r="28.2"/>
	<path class="st2" d="M285.3,48.4c-11,11-28.8,11-39.8,0c-0.6-0.6-1.3-1.3-1.8-2c11.1,9.1,27.5,8.5,37.8-1.8
		c10.4-10.4,11-26.8,1.8-37.8c0.7,0.6,1.4,1.2,2,1.8C296.3,19.5,296.3,37.4,285.3,48.4z"/>
	<ellipse transform="matrix(0.7885 -0.6151 0.6151 0.7885 47.1546 157.6952)" class="st3" cx="252.8" cy="10.3" rx="6.1" ry="2"/>
	<ellipse transform="matrix(0.3913 -0.9203 0.9203 0.3913 131.7849 237.6223)" class="st3" cx="245.5" cy="19.2" rx="3.5" ry="2"/>
	<ellipse transform="matrix(0.773 -0.6345 0.6345 0.773 33.1726 189.1971)" class="st4" cx="280.9" cy="48.2" rx="4.1" ry="1.1"/>
	<ellipse transform="matrix(0.5 -0.866 0.866 0.5 106.5933 269.4213)" class="st4" cx="286.6" cy="42.4" rx="2.3" ry="1.1"/>
</g>
<g class="st0">
	<circle class="st1" cx="97.7" cy="154.5" r="28.2"/>
	<path class="st2" d="M117.6,174.4c-11,11-28.8,11-39.8,0c-0.6-0.6-1.3-1.3-1.8-2c11.1,9.1,27.5,8.5,37.8-1.8
		c10.4-10.4,11-26.8,1.8-37.8c0.7,0.6,1.4,1.2,2,1.8C128.6,145.6,128.6,163.4,117.6,174.4z"/>
	<ellipse transform="matrix(0.7885 -0.6151 0.6151 0.7885 -65.8276 81.2477)" class="st3" cx="85.2" cy="136.3" rx="6.1" ry="2"/>
	<ellipse transform="matrix(0.3913 -0.9203 0.9203 0.3913 -86.2327 160.0715)" class="st3" cx="77.9" cy="145.2" rx="3.5" ry="2"/>
	<ellipse transform="matrix(0.773 -0.6345 0.6345 0.773 -84.8509 111.4558)" class="st4" cx="113.3" cy="174.3" rx="4.1" ry="1.1"/>
	<ellipse transform="matrix(0.5 -0.866 0.866 0.5 -86.3707 187.2636)" class="st4" cx="119" cy="168.4" rx="2.3" ry="1.1"/>
</g>
<g class="st0">
	<circle class="st1" cx="413.8" cy="172.7" r="28.2"/>
	<path class="st2" d="M433.7,192.6c-11,11-28.8,11-39.8,0c-0.6-0.6-1.3-1.3-1.8-2c11.1,9.1,27.5,8.5,37.8-1.8
		c10.4-10.4,11-26.8,1.8-37.8c0.7,0.6,1.4,1.2,2,1.8C444.7,163.7,444.7,181.6,433.7,192.6z"/>
	<ellipse transform="matrix(0.7885 -0.6151 0.6151 0.7885 -10.1372 279.5171)" class="st3" cx="401.3" cy="154.5" rx="6.1" ry="2"/>
	<ellipse transform="matrix(0.3913 -0.9203 0.9203 0.3913 89.4473 462.0196)" class="st3" cx="394" cy="163.4" rx="3.5" ry="2"/>
	<ellipse transform="matrix(0.773 -0.6345 0.6345 0.773 -24.6112 316.1316)" class="st4" cx="429.4" cy="192.5" rx="4.1" ry="1.1"/>
	<ellipse transform="matrix(0.5 -0.866 0.866 0.5 55.9407 470.095)" class="st4" cx="435.1" cy="186.6" rx="2.3" ry="1.1"/>
</g>
<g class="st0">
	<circle class="st1" cx="243.6" cy="190" r="15.6"/>
	<path class="st2" d="M254.6,201.1c-6.1,6.1-16,6.1-22.1,0c-0.4-0.4-0.7-0.7-1-1.1c6.1,5.1,15.2,4.7,20.9-1c5.7-5.7,6.1-14.8,1-20.9
		c0.4,0.3,0.8,0.7,1.1,1C260.7,185.1,260.7,195,254.6,201.1z"/>
	<ellipse transform="matrix(0.7885 -0.6151 0.6151 0.7885 -60.6383 183.6467)" class="st3" cx="236.7" cy="180" rx="3.4" ry="1.1"/>
	<ellipse transform="matrix(0.3913 -0.9203 0.9203 0.3913 -28.5699 326.6191)" class="st3" cx="232.6" cy="184.9" rx="2" ry="1.1"/>
	<ellipse transform="matrix(0.773 -0.6345 0.6345 0.773 -70.2572 205.6638)" class="st4" cx="252.2" cy="201" rx="2.3" ry="0.6"/>
	<ellipse transform="matrix(0.5 -0.866 0.866 0.5 -43.574 320.0403)" class="st4" cx="255.4" cy="197.8" rx="1.3" ry="0.6"/>
</g>
<g class="st0">
	<circle class="st1" cx="417" cy="56.6" r="15.6"/>
	<path class="st2" d="M428,67.7c-6.1,6.1-16,6.1-22.1,0c-0.4-0.4-0.7-0.7-1-1.1c6.1,5.1,15.2,4.7,20.9-1c5.7-5.7,6.1-14.8,1-20.9
		c0.4,0.3,0.8,0.7,1.1,1C434.1,51.7,434.1,61.6,428,67.7z"/>
	<ellipse transform="matrix(0.7885 -0.6151 0.6151 0.7885 58.1067 262.0921)" class="st3" cx="410.1" cy="46.6" rx="3.4" ry="1.1"/>
	<ellipse transform="matrix(0.3913 -0.9203 0.9203 0.3913 199.7602 405.003)" class="st3" cx="406" cy="51.5" rx="2" ry="1.1"/>
	<ellipse transform="matrix(0.773 -0.6345 0.6345 0.773 53.7617 285.4007)" class="st4" cx="425.6" cy="67.6" rx="2.3" ry="0.6"/>
	<ellipse transform="matrix(0.5 -0.866 0.866 0.5 158.6736 403.5192)" class="st4" cx="428.8" cy="64.3" rx="1.3" ry="0.6"/>
</g>
<g class="st0">
	<circle class="st1" cx="48.6" cy="64.3" r="15.6"/>
	<path class="st2" d="M59.7,75.4c-6.1,6.1-16,6.1-22.1,0c-0.4-0.4-0.7-0.7-1-1.1c6.1,5.1,15.2,4.7,20.9-1s6.1-14.8,1-20.9
		c0.4,0.3,0.8,0.7,1.1,1C65.7,59.4,65.7,69.3,59.7,75.4z"/>
	<ellipse transform="matrix(0.7885 -0.6151 0.6151 0.7885 -24.567 37.1356)" class="st3" cx="41.7" cy="54.3" rx="3.4" ry="1.1"/>
	<ellipse transform="matrix(0.3913 -0.9203 0.9203 0.3913 -31.5692 70.6907)" class="st3" cx="37.7" cy="59.2" rx="2" ry="1.1"/>
	<ellipse transform="matrix(0.773 -0.6345 0.6345 0.773 -34.7737 53.426)" class="st4" cx="57.3" cy="75.3" rx="2.3" ry="0.6"/>
	<ellipse transform="matrix(0.5 -0.866 0.866 0.5 -32.2005 88.346)" class="st4" cx="60.4" cy="72.1" rx="1.3" ry="0.6"/>
</g>
</svg>
