<?xml version="1.0" encoding="utf-8"?>
<!-- Generator: Adobe Illustrator 22.1.0, SVG Export Plug-In . SVG Version: 6.00 Build 0)  -->
<svg version="1.1" id="Layer_1" xmlns="http://www.w3.org/2000/svg" xmlns:xlink="http://www.w3.org/1999/xlink" x="0px" y="0px"
	 viewBox="0 0 1301 952" style="enable-background:new 0 0 1301 952;" xml:space="preserve">
<style type="text/css">
	.st0{opacity:0.25;}
	.st1{opacity:0.2;fill:#00C3FF;enable-background:new    ;}
	.st2{opacity:5.000000e-02;enable-background:new    ;}
	.st3{fill:#FFFFFF;}
	.st4{opacity:0.5;fill:#FFFFFF;enable-background:new    ;}
</style>
<g class="st0">
	<g>
		<circle class="st1" cx="424.9" cy="213.1" r="6.4"/>
		<path class="st2" d="M429.4,217.6c-2.5,2.5-6.6,2.5-9.1,0c-0.1-0.1-0.3-0.3-0.4-0.5c2.5,2.1,6.3,1.9,8.6-0.4
			c2.4-2.4,2.5-6.1,0.4-8.6c0.2,0.1,0.3,0.3,0.5,0.4C431.9,211.1,431.9,215.1,429.4,217.6z"/>
		<ellipse transform="matrix(0.7885 -0.6151 0.6151 0.7885 -39.2837 303.804)" class="st3" cx="422" cy="209" rx="1.4" ry="0.5"/>
		
			<ellipse transform="matrix(0.3913 -0.9203 0.9203 0.3913 61.7718 515.2701)" class="st3" cx="420.4" cy="210.9" rx="0.8" ry="0.5"/>
		<ellipse transform="matrix(0.773 -0.6345 0.6345 0.773 -40.799 321.2292)" class="st4" cx="428.4" cy="217.6" rx="0.9" ry="0.3"/>
		<ellipse transform="matrix(0.5 -0.866 0.866 0.5 27.5125 480.3116)" class="st4" cx="429.7" cy="216.3" rx="0.5" ry="0.3"/>
	</g>
	<g>
		<circle class="st1" cx="341.6" cy="43.5" r="6.4"/>
		<path class="st2" d="M346.2,48c-2.5,2.5-6.6,2.5-9.1,0c-0.1-0.1-0.3-0.3-0.4-0.5c2.5,2.1,6.3,1.9,8.6-0.4c2.4-2.4,2.5-6.1,0.4-8.6
			c0.2,0.1,0.3,0.3,0.5,0.4C348.7,41.5,348.7,45.5,346.2,48z"/>
		
			<ellipse transform="matrix(0.7885 -0.6151 0.6151 0.7885 47.4608 216.7339)" class="st3" cx="338.8" cy="39.4" rx="1.4" ry="0.5"/>
		
			<ellipse transform="matrix(0.3913 -0.9203 0.9203 0.3913 167.1272 335.4112)" class="st3" cx="337.1" cy="41.4" rx="0.8" ry="0.5"/>
		<ellipse transform="matrix(0.773 -0.6345 0.6345 0.773 47.9424 229.9103)" class="st4" cx="345.2" cy="48" rx="0.9" ry="0.3"/>
		<ellipse transform="matrix(0.5 -0.866 0.866 0.5 132.8351 323.4077)" class="st4" cx="346.5" cy="46.7" rx="0.5" ry="0.3"/>
	</g>
	<g>
		<circle class="st1" cx="472.5" cy="63.5" r="6.4"/>
		<path class="st2" d="M477,68c-2.5,2.5-6.6,2.5-9.1,0c-0.1-0.1-0.3-0.3-0.4-0.5c2.5,2.1,6.3,1.9,8.6-0.4c2.4-2.4,2.5-6.1,0.4-8.6
			c0.2,0.1,0.3,0.3,0.5,0.4C479.5,61.5,479.5,65.5,477,68z"/>
		
			<ellipse transform="matrix(0.7885 -0.6151 0.6151 0.7885 62.8545 301.4781)" class="st3" cx="469.7" cy="59.4" rx="1.4" ry="0.5"/>
		<ellipse transform="matrix(0.3913 -0.9203 0.9203 0.3913 228.413 468.0304)" class="st3" cx="468" cy="61.4" rx="0.8" ry="0.5"/>
		<ellipse transform="matrix(0.773 -0.6345 0.6345 0.773 64.9818 317.5023)" class="st4" cx="476.1" cy="68" rx="0.9" ry="0.3"/>
		<ellipse transform="matrix(0.5 -0.866 0.866 0.5 180.966 446.7603)" class="st4" cx="477.4" cy="66.7" rx="0.5" ry="0.3"/>
	</g>
	<g>
		<circle class="st1" cx="614.8" cy="98.2" r="6.4"/>
		<path class="st2" d="M619.3,102.7c-2.5,2.5-6.6,2.5-9.1,0c-0.1-0.1-0.3-0.3-0.4-0.5c2.5,2.1,6.3,1.9,8.6-0.4
			c2.4-2.4,2.5-6.1,0.4-8.6c0.2,0.1,0.3,0.3,0.5,0.4C621.8,96.1,621.8,100.2,619.3,102.7z"/>
		<ellipse transform="matrix(0.7885 -0.6151 0.6151 0.7885 71.6109 396.2627)" class="st3" cx="611.9" cy="94" rx="1.4" ry="0.5"/>
		<ellipse transform="matrix(0.3913 -0.9203 0.9203 0.3913 283.1529 620.0936)" class="st3" cx="610.3" cy="96" rx="0.8" ry="0.5"/>
		<ellipse transform="matrix(0.773 -0.6345 0.6345 0.773 75.2382 415.6398)" class="st4" cx="618.4" cy="102.7" rx="0.9" ry="0.3"/>
		<ellipse transform="matrix(0.5 -0.866 0.866 0.5 221.9996 587.2435)" class="st4" cx="619.6" cy="101.4" rx="0.5" ry="0.3"/>
	</g>
	<g>
		<circle class="st1" cx="599.5" cy="158.5" r="6.4"/>
		<path class="st2" d="M604.1,163.1c-2.5,2.5-6.6,2.5-9.1,0c-0.1-0.1-0.3-0.3-0.4-0.5c2.5,2.1,6.3,1.9,8.6-0.4
			c2.4-2.4,2.5-6.1,0.4-8.6c0.2,0.1,0.3,0.3,0.5,0.4C606.6,156.5,606.6,160.6,604.1,163.1z"/>
		
			<ellipse transform="matrix(0.7885 -0.6151 0.6151 0.7885 31.2615 399.6942)" class="st3" cx="596.7" cy="154.4" rx="1.4" ry="0.5"/>
		
			<ellipse transform="matrix(0.3913 -0.9203 0.9203 0.3913 218.2401 642.7695)" class="st3" cx="595" cy="156.4" rx="0.8" ry="0.5"/>
		<ellipse transform="matrix(0.773 -0.6345 0.6345 0.773 33.5178 419.6568)" class="st4" cx="603.1" cy="163" rx="0.9" ry="0.3"/>
		<ellipse transform="matrix(0.5 -0.866 0.866 0.5 162.1345 604.2696)" class="st4" cx="604.4" cy="161.7" rx="0.5" ry="0.3"/>
	</g>
	<g>
		<circle class="st1" cx="678.1" cy="12.5" r="6.4"/>
		<path class="st2" d="M682.7,17c-2.5,2.5-6.6,2.5-9.1,0c-0.1-0.1-0.3-0.3-0.4-0.5c2.5,2.1,6.3,1.9,8.6-0.4c2.4-2.4,2.5-6.1,0.4-8.6
			c0.2,0.1,0.3,0.3,0.5,0.4C685.2,10.5,685.2,14.5,682.7,17z"/>
		
			<ellipse transform="matrix(0.7885 -0.6151 0.6151 0.7885 137.7149 417.1562)" class="st3" cx="675.3" cy="8.4" rx="1.4" ry="0.5"/>
		
			<ellipse transform="matrix(0.3913 -0.9203 0.9203 0.3913 400.4964 626.1961)" class="st3" cx="673.6" cy="10.4" rx="0.8" ry="0.5"/>
		<ellipse transform="matrix(0.773 -0.6345 0.6345 0.773 144.024 436.3743)" class="st4" cx="681.7" cy="17" rx="0.9" ry="0.3"/>
		<ellipse transform="matrix(0.5 -0.866 0.866 0.5 327.9209 599.3284)" class="st4" cx="683" cy="15.7" rx="0.5" ry="0.3"/>
	</g>
	<g>
		<circle class="st1" cx="872.5" cy="6.5" r="6.4"/>
		<path class="st2" d="M877,11c-2.5,2.5-6.6,2.5-9.1,0c-0.1-0.1-0.3-0.3-0.4-0.5c2.5,2.1,6.3,1.9,8.6-0.4c2.4-2.4,2.5-6.1,0.4-8.6
			c0.2,0.1,0.3,0.3,0.5,0.4C879.5,4.4,879.5,8.5,877,11z"/>
		
			<ellipse transform="matrix(0.7885 -0.6151 0.6151 0.7885 182.5812 535.4187)" class="st3" cx="869.7" cy="2.3" rx="1.4" ry="0.5"/>
		
			<ellipse transform="matrix(0.3913 -0.9203 0.9203 0.3913 524.3918 801.3344)" class="st3" cx="867.9" cy="4.3" rx="0.8" ry="0.5"/>
		<ellipse transform="matrix(0.773 -0.6345 0.6345 0.773 191.9921 558.3671)" class="st4" cx="876.2" cy="10.9" rx="0.9" ry="0.3"/>
		<ellipse transform="matrix(0.5 -0.866 0.866 0.5 430.3543 764.5967)" class="st4" cx="877.3" cy="9.6" rx="0.5" ry="0.3"/>
	</g>
	<g>
		<circle class="st1" cx="902.5" cy="92.5" r="6.4"/>
		<path class="st2" d="M907,97c-2.5,2.5-6.6,2.5-9.1,0c-0.1-0.1-0.3-0.3-0.4-0.5c2.5,2.1,6.3,1.9,8.6-0.4c2.4-2.4,2.5-6.1,0.4-8.6
			c0.2,0.1,0.3,0.3,0.5,0.4C909.5,90.5,909.5,94.5,907,97z"/>
		
			<ellipse transform="matrix(0.7885 -0.6151 0.6151 0.7885 135.9826 572.1047)" class="st3" cx="899.8" cy="88.4" rx="1.4" ry="0.5"/>
		<ellipse transform="matrix(0.3913 -0.9203 0.9203 0.3913 463.486 881.3809)" class="st3" cx="898" cy="90.3" rx="0.8" ry="0.5"/>
		<ellipse transform="matrix(0.773 -0.6345 0.6345 0.773 144.2264 596.9152)" class="st4" cx="906.1" cy="96.9" rx="0.9" ry="0.3"/>
		<ellipse transform="matrix(0.5 -0.866 0.866 0.5 370.837 833.6531)" class="st4" cx="907.4" cy="95.7" rx="0.5" ry="0.3"/>
	</g>
	<g>
		<circle class="st1" cx="1040.5" cy="64" r="6.4"/>
		<path class="st2" d="M1045,68.5c-2.5,2.5-6.6,2.5-9.1,0c-0.1-0.1-0.3-0.3-0.4-0.5c2.5,2.1,6.3,1.9,8.6-0.4
			c2.4-2.4,2.5-6.1,0.4-8.6c0.2,0.1,0.3,0.3,0.5,0.4C1047.5,61.9,1047.5,66,1045,68.5z"/>
		
			<ellipse transform="matrix(0.7885 -0.6151 0.6151 0.7885 182.7504 650.9153)" class="st3" cx="1037.7" cy="59.8" rx="1.4" ry="0.5"/>
		
			<ellipse transform="matrix(0.3913 -0.9203 0.9203 0.3913 573.7551 991.0383)" class="st3" cx="1036" cy="61.8" rx="0.8" ry="0.5"/>
		
			<ellipse transform="matrix(0.773 -0.6345 0.6345 0.773 193.6556 678.0134)" class="st4" cx="1044.2" cy="68.4" rx="0.9" ry="0.3"/>
		<ellipse transform="matrix(0.5 -0.866 0.866 0.5 464.5422 938.8325)" class="st4" cx="1045.3" cy="67.1" rx="0.5" ry="0.3"/>
	</g>
	<g>
		<circle class="st1" cx="62.5" cy="217.6" r="6.4"/>
		<path class="st2" d="M67,222.2c-2.5,2.5-6.6,2.5-9.1,0c-0.1-0.1-0.3-0.3-0.4-0.5c2.5,2.1,6.3,1.9,8.6-0.4c2.3-2.3,2.5-6.1,0.4-8.6
			c0.2,0.1,0.3,0.3,0.5,0.4C69.5,215.6,69.5,219.6,67,222.2z"/>
		
			<ellipse transform="matrix(0.7885 -0.6151 0.6151 0.7885 -118.6712 81.8823)" class="st3" cx="59.7" cy="213.5" rx="1.4" ry="0.5"/>
		
			<ellipse transform="matrix(0.3913 -0.9203 0.9203 0.3913 -162.9973 184.5373)" class="st3" cx="58" cy="215.5" rx="0.8" ry="0.5"/>
		<ellipse transform="matrix(0.773 -0.6345 0.6345 0.773 -125.8999 92.3516)" class="st4" cx="66.1" cy="222.1" rx="0.9" ry="0.3"/>
		<ellipse transform="matrix(0.5 -0.866 0.866 0.5 -157.4903 168.7239)" class="st4" cx="67.4" cy="220.8" rx="0.5" ry="0.3"/>
	</g>
	<g>
		<circle class="st1" cx="238.5" cy="391.5" r="6.4"/>
		<path class="st2" d="M243,396c-2.5,2.5-6.6,2.5-9.1,0c-0.1-0.1-0.3-0.3-0.4-0.5c2.5,2.1,6.3,1.9,8.6-0.4c2.4-2.4,2.5-6.1,0.4-8.6
			c0.2,0.1,0.3,0.3,0.5,0.4C245.5,389.5,245.5,393.5,243,396z"/>
		
			<ellipse transform="matrix(0.7885 -0.6151 0.6151 0.7885 -188.3997 226.9333)" class="st3" cx="235.7" cy="387.4" rx="1.4" ry="0.5"/>
		
			<ellipse transform="matrix(0.3913 -0.9203 0.9203 0.3913 -215.8671 452.3654)" class="st3" cx="234" cy="389.4" rx="0.8" ry="0.5"/>
		<ellipse transform="matrix(0.773 -0.6345 0.6345 0.773 -196.2655 243.5157)" class="st4" cx="242.1" cy="396" rx="0.9" ry="0.3"/>
		<ellipse transform="matrix(0.5 -0.866 0.866 0.5 -220.0847 408.0982)" class="st4" cx="243.4" cy="394.7" rx="0.5" ry="0.3"/>
	</g>
	<g>
		<circle class="st1" cx="317.5" cy="459.5" r="6.4"/>
		<path class="st2" d="M322.1,464.1c-2.5,2.5-6.6,2.5-9.1,0c-0.1-0.1-0.3-0.3-0.4-0.5c2.5,2.1,6.3,1.9,8.6-0.4
			c2.4-2.4,2.5-6.1,0.4-8.6c0.2,0.1,0.3,0.3,0.5,0.4C324.6,457.5,324.6,461.6,322.1,464.1z"/>
		
			<ellipse transform="matrix(0.7885 -0.6151 0.6151 0.7885 -213.5395 289.9129)" class="st3" cx="314.7" cy="455.4" rx="1.4" ry="0.5"/>
		
			<ellipse transform="matrix(0.3913 -0.9203 0.9203 0.3913 -230.4136 566.4976)" class="st3" cx="313" cy="457.4" rx="0.8" ry="0.5"/>
		<ellipse transform="matrix(0.773 -0.6345 0.6345 0.773 -221.4982 309.0839)" class="st4" cx="321.1" cy="464" rx="0.9" ry="0.3"/>
		<ellipse transform="matrix(0.5 -0.866 0.866 0.5 -239.5318 510.5387)" class="st4" cx="322.4" cy="462.7" rx="0.5" ry="0.3"/>
	</g>
	<g>
		<circle class="st1" cx="196.5" cy="572.5" r="6.4"/>
		<path class="st2" d="M201,577c-2.5,2.5-6.6,2.5-9.1,0c-0.1-0.1-0.3-0.3-0.4-0.5c2.5,2.1,6.3,1.9,8.6-0.4c2.4-2.4,2.5-6.1,0.4-8.6
			c0.2,0.1,0.3,0.3,0.5,0.4C203.5,570.5,203.5,574.5,201,577z"/>
		
			<ellipse transform="matrix(0.7885 -0.6151 0.6151 0.7885 -308.6174 239.3895)" class="st3" cx="193.7" cy="568.4" rx="1.4" ry="0.5"/>
		
			<ellipse transform="matrix(0.3913 -0.9203 0.9203 0.3913 -407.9951 523.8984)" class="st3" cx="192" cy="570.4" rx="0.8" ry="0.5"/>
		<ellipse transform="matrix(0.773 -0.6345 0.6345 0.773 -320.6442 257.969)" class="st4" cx="200.1" cy="577" rx="0.9" ry="0.3"/>
		<ellipse transform="matrix(0.5 -0.866 0.866 0.5 -397.835 462.2188)" class="st4" cx="201.4" cy="575.6" rx="0.5" ry="0.3"/>
	</g>
	<g>
		<circle class="st1" cx="230.5" cy="708.5" r="6.4"/>
		<path class="st2" d="M235,713c-2.5,2.5-6.6,2.5-9.1,0c-0.1-0.1-0.3-0.3-0.4-0.5c2.5,2.1,6.3,1.9,8.6-0.4c2.4-2.4,2.5-6.1,0.4-8.6
			c0.2,0.1,0.3,0.3,0.5,0.4C237.5,706.5,237.5,710.5,235,713z"/>
		
			<ellipse transform="matrix(0.7885 -0.6151 0.6151 0.7885 -385.078 289.0734)" class="st3" cx="227.7" cy="704.4" rx="1.4" ry="0.5"/>
		
			<ellipse transform="matrix(0.3913 -0.9203 0.9203 0.3913 -512.4485 637.9751)" class="st3" cx="226" cy="706.4" rx="0.8" ry="0.5"/>
		<ellipse transform="matrix(0.773 -0.6345 0.6345 0.773 -399.2132 310.4244)" class="st4" cx="234.1" cy="713" rx="0.9" ry="0.3"/>
		<ellipse transform="matrix(0.5 -0.866 0.866 0.5 -498.6165 559.6594)" class="st4" cx="235.4" cy="711.7" rx="0.5" ry="0.3"/>
	</g>
	<g>
		<circle class="st1" cx="443.5" cy="662.5" r="6.4"/>
		<path class="st2" d="M448.1,667.1c-2.5,2.5-6.6,2.5-9.1,0c-0.1-0.1-0.3-0.3-0.4-0.5c2.5,2.1,6.3,1.9,8.6-0.4
			c2.4-2.4,2.5-6.1,0.4-8.6c0.2,0.1,0.3,0.3,0.5,0.4C450.6,660.5,450.6,664.6,448.1,667.1z"/>
		
			<ellipse transform="matrix(0.7885 -0.6151 0.6151 0.7885 -311.7491 410.3596)" class="st3" cx="440.7" cy="658.4" rx="1.4" ry="0.5"/>
		
			<ellipse transform="matrix(0.3913 -0.9203 0.9203 0.3913 -340.5177 806.021)" class="st3" cx="439" cy="660.4" rx="0.8" ry="0.5"/>
		<ellipse transform="matrix(0.773 -0.6345 0.6345 0.773 -321.686 435.1261)" class="st4" cx="447.1" cy="667" rx="0.9" ry="0.3"/>
		<ellipse transform="matrix(0.5 -0.866 0.866 0.5 -352.3404 721.152)" class="st4" cx="448.4" cy="665.7" rx="0.5" ry="0.3"/>
	</g>
	<g>
		<circle class="st1" cx="6.4" cy="861" r="6.4"/>
		<path class="st2" d="M11,865.5c-2.5,2.5-6.6,2.5-9.1,0c-0.1-0.1-0.3-0.3-0.4-0.5c2.5,2.1,6.3,1.9,8.6-0.4c2.4-2.4,2.5-6.1,0.4-8.6
			c0.2,0.1,0.3,0.3,0.5,0.4C13.5,859,13.5,863,11,865.5z"/>
		
			<ellipse transform="matrix(0.7885 -0.6151 0.6151 0.7885 -526.2946 183.4962)" class="st3" cx="3.6" cy="856.9" rx="1.4" ry="0.5"/>
		<ellipse transform="matrix(0.3913 -0.9203 0.9203 0.3913 -789.2114 524.6071)" class="st3" cx="2" cy="858.9" rx="0.8" ry="0.5"/>
		<ellipse transform="matrix(0.773 -0.6345 0.6345 0.773 -546.8671 202.872)" class="st4" cx="10" cy="865.5" rx="0.9" ry="0.3"/>
		<ellipse transform="matrix(0.5 -0.866 0.866 0.5 -742.7383 441.843)" class="st4" cx="11.3" cy="864.2" rx="0.5" ry="0.3"/>
	</g>
	<g>
		<circle class="st1" cx="360.5" cy="792.5" r="6.4"/>
		<path class="st2" d="M365.1,797.1c-2.5,2.5-6.6,2.5-9.1,0c-0.1-0.1-0.3-0.3-0.4-0.5c2.5,2.1,6.3,1.9,8.6-0.4
			c2.4-2.4,2.5-6.1,0.4-8.6c0.2,0.1,0.3,0.3,0.5,0.4C367.6,790.5,367.6,794.6,365.1,797.1z"/>
		
			<ellipse transform="matrix(0.7885 -0.6151 0.6151 0.7885 -409.2703 386.8078)" class="st3" cx="357.7" cy="788.4" rx="1.4" ry="0.5"/>
		
			<ellipse transform="matrix(0.3913 -0.9203 0.9203 0.3913 -510.6727 808.7789)" class="st3" cx="356" cy="790.4" rx="0.8" ry="0.5"/>
		<ellipse transform="matrix(0.773 -0.6345 0.6345 0.773 -423.0166 411.9844)" class="st4" cx="364.1" cy="797" rx="0.9" ry="0.3"/>
		<ellipse transform="matrix(0.5 -0.866 0.866 0.5 -506.4218 714.267)" class="st4" cx="365.4" cy="795.7" rx="0.5" ry="0.3"/>
	</g>
	<g>
		<circle class="st1" cx="494.5" cy="888.5" r="6.4"/>
		<path class="st2" d="M499,893c-2.5,2.5-6.6,2.5-9.1,0c-0.1-0.1-0.3-0.3-0.4-0.5c2.5,2.1,6.3,1.9,8.6-0.4c2.4-2.4,2.5-6.1,0.4-8.6
			c0.2,0.1,0.3,0.3,0.5,0.4C501.5,886.5,501.5,890.5,499,893z"/>
		
			<ellipse transform="matrix(0.7885 -0.6151 0.6151 0.7885 -439.9466 489.5378)" class="st3" cx="491.7" cy="884.4" rx="1.4" ry="0.5"/>
		
			<ellipse transform="matrix(0.3913 -0.9203 0.9203 0.3913 -517.381 990.4886)" class="st3" cx="490" cy="886.3" rx="0.8" ry="0.5"/>
		<ellipse transform="matrix(0.773 -0.6345 0.6345 0.773 -453.4708 518.8024)" class="st4" cx="498.1" cy="893" rx="0.9" ry="0.3"/>
		<ellipse transform="matrix(0.5 -0.866 0.866 0.5 -522.5109 878.2859)" class="st4" cx="499.4" cy="891.7" rx="0.5" ry="0.3"/>
	</g>
	<g>
		<circle class="st1" cx="680.5" cy="780.5" r="6.4"/>
		<path class="st2" d="M685.1,785.1c-2.5,2.5-6.6,2.5-9.1,0c-0.1-0.1-0.3-0.3-0.4-0.5c2.5,2.1,6.3,1.9,8.6-0.4
			c2.4-2.4,2.5-6.1,0.4-8.6c0.2,0.1,0.3,0.3,0.5,0.4C687.6,778.5,687.6,782.6,685.1,785.1z"/>
		
			<ellipse transform="matrix(0.7885 -0.6151 0.6151 0.7885 -334.1936 581.1003)" class="st3" cx="677.7" cy="776.4" rx="1.4" ry="0.5"/>
		
			<ellipse transform="matrix(0.3913 -0.9203 0.9203 0.3913 -304.8321 1095.9462)" class="st3" cx="676" cy="778.4" rx="0.8" ry="0.5"/>
		<ellipse transform="matrix(0.773 -0.6345 0.6345 0.773 -342.737 612.2939)" class="st4" cx="684.1" cy="785" rx="0.9" ry="0.3"/>
		<ellipse transform="matrix(0.5 -0.866 0.866 0.5 -336.0399 985.3976)" class="st4" cx="685.4" cy="783.7" rx="0.5" ry="0.3"/>
	</g>
	<g>
		<circle class="st1" cx="730.5" cy="945.6" r="6.4"/>
		<path class="st2" d="M735,950.1c-2.5,2.5-6.6,2.5-9.1,0c-0.1-0.1-0.3-0.3-0.4-0.5c2.5,2.1,6.3,1.9,8.6-0.4
			c2.4-2.4,2.5-6.1,0.4-8.6c0.2,0.1,0.3,0.3,0.5,0.4C737.5,943.5,737.5,947.6,735,950.1z"/>
		
			<ellipse transform="matrix(0.7885 -0.6151 0.6151 0.7885 -425.1028 646.732)" class="st3" cx="727.7" cy="941.4" rx="1.4" ry="0.5"/>
		
			<ellipse transform="matrix(0.3913 -0.9203 0.9203 0.3913 -426.2412 1242.4301)" class="st3" cx="726" cy="943.4" rx="0.8" ry="0.5"/>
		
			<ellipse transform="matrix(0.773 -0.6345 0.6345 0.773 -436.1033 681.5132)" class="st4" cx="734.2" cy="950.1" rx="0.9" ry="0.3"/>
		<ellipse transform="matrix(0.5 -0.866 0.866 0.5 -453.9528 1111.2268)" class="st4" cx="735.4" cy="948.8" rx="0.5" ry="0.3"/>
	</g>
	<g>
		<circle class="st1" cx="804.5" cy="817.1" r="6.4"/>
		<path class="st2" d="M809,821.7c-2.5,2.5-6.6,2.5-9.1,0c-0.1-0.1-0.3-0.3-0.4-0.5c2.5,2.1,6.3,1.9,8.6-0.4
			c2.4-2.4,2.5-6.1,0.4-8.6c0.2,0.1,0.3,0.3,0.5,0.4C811.5,815.1,811.5,819.2,809,821.7z"/>
		
			<ellipse transform="matrix(0.7885 -0.6151 0.6151 0.7885 -330.4552 665.105)" class="st3" cx="801.7" cy="813" rx="1.4" ry="0.5"/>
		
			<ellipse transform="matrix(0.3913 -0.9203 0.9203 0.3913 -262.9947 1232.2822)" class="st3" cx="800" cy="814.9" rx="0.8" ry="0.5"/>
		
			<ellipse transform="matrix(0.773 -0.6345 0.6345 0.773 -337.781 699.2697)" class="st4" cx="808.1" cy="821.6" rx="0.9" ry="0.3"/>
		<ellipse transform="matrix(0.5 -0.866 0.866 0.5 -305.7083 1111.0454)" class="st4" cx="809.4" cy="820.3" rx="0.5" ry="0.3"/>
	</g>
	<g>
		<circle class="st1" cx="992.5" cy="879.5" r="6.4"/>
		<path class="st2" d="M997.1,884.1c-2.5,2.5-6.6,2.5-9.1,0c-0.1-0.1-0.3-0.3-0.4-0.5c2.5,2.1,6.3,1.9,8.6-0.4
			c2.4-2.4,2.5-6.1,0.4-8.6c0.2,0.1,0.3,0.3,0.5,0.4C999.6,877.5,999.6,881.6,997.1,884.1z"/>
		
			<ellipse transform="matrix(0.7885 -0.6151 0.6151 0.7885 -329.0851 793.954)" class="st3" cx="989.8" cy="875.4" rx="1.4" ry="0.5"/>
		
			<ellipse transform="matrix(0.3913 -0.9203 0.9203 0.3913 -206.0066 1443.3221)" class="st3" cx="988" cy="877.4" rx="0.8" ry="0.5"/>
		<ellipse transform="matrix(0.773 -0.6345 0.6345 0.773 -334.7017 832.7336)" class="st4" cx="996.2" cy="884" rx="0.9" ry="0.3"/>
		<ellipse transform="matrix(0.5 -0.866 0.866 0.5 -265.7874 1305.0963)" class="st4" cx="997.4" cy="882.7" rx="0.5" ry="0.3"/>
	</g>
	<g>
		<circle class="st1" cx="1180.5" cy="834.3" r="6.4"/>
		<path class="st2" d="M1185,838.8c-2.5,2.5-6.6,2.5-9.1,0c-0.1-0.1-0.3-0.3-0.4-0.5c2.5,2.1,6.3,1.9,8.6-0.4
			c2.4-2.4,2.5-6.1,0.4-8.6c0.2,0.1,0.3,0.3,0.5,0.4C1187.5,832.2,1187.5,836.3,1185,838.8z"/>
		
			<ellipse transform="matrix(0.7885 -0.6151 0.6151 0.7885 -261.4393 899.9884)" class="st3" cx="1177.7" cy="830.1" rx="1.4" ry="0.5"/>
		
			<ellipse transform="matrix(0.3913 -0.9203 0.9203 0.3913 -49.8783 1588.6816)" class="st3" cx="1176" cy="832" rx="0.8" ry="0.5"/>
		
			<ellipse transform="matrix(0.773 -0.6345 0.6345 0.773 -263.2921 941.765)" class="st4" cx="1184.2" cy="838.8" rx="0.9" ry="0.3"/>
		<ellipse transform="matrix(0.5 -0.866 0.866 0.5 -132.5571 1445.207)" class="st4" cx="1185.3" cy="837.4" rx="0.5" ry="0.3"/>
	</g>
	<g>
		<circle class="st1" cx="854" cy="710" r="6.4"/>
		<path class="st2" d="M858.5,714.5c-2.5,2.5-6.6,2.5-9.1,0c-0.1-0.1-0.3-0.3-0.4-0.5c2.5,2.1,6.3,1.9,8.6-0.4
			c2.4-2.4,2.5-6.1,0.4-8.6c0.2,0.1,0.3,0.3,0.5,0.4C861,708,861,712,858.5,714.5z"/>
		
			<ellipse transform="matrix(0.7885 -0.6151 0.6151 0.7885 -254.1001 672.9038)" class="st3" cx="851.3" cy="705.9" rx="1.4" ry="0.5"/>
		
			<ellipse transform="matrix(0.3913 -0.9203 0.9203 0.3913 -134.2775 1212.649)" class="st3" cx="849.5" cy="707.8" rx="0.8" ry="0.5"/>
		
			<ellipse transform="matrix(0.773 -0.6345 0.6345 0.773 -258.5801 706.3651)" class="st4" cx="857.7" cy="714.5" rx="0.9" ry="0.3"/>
		<ellipse transform="matrix(0.5 -0.866 0.866 0.5 -188.1861 1100.3801)" class="st4" cx="858.9" cy="713.2" rx="0.5" ry="0.3"/>
	</g>
	<g>
		<circle class="st1" cx="974.5" cy="692.5" r="6.4"/>
		<path class="st2" d="M979,697c-2.5,2.5-6.6,2.5-9.1,0c-0.1-0.1-0.3-0.3-0.4-0.5c2.5,2.1,6.3,1.9,8.6-0.4c2.4-2.4,2.5-6.1,0.4-8.6
			c0.2,0.1,0.3,0.3,0.5,0.4C981.5,690.5,981.5,694.5,979,697z"/>
		
			<ellipse transform="matrix(0.7885 -0.6151 0.6151 0.7885 -217.8443 743.3209)" class="st3" cx="971.8" cy="688.4" rx="1.4" ry="0.5"/>
		<ellipse transform="matrix(0.3913 -0.9203 0.9203 0.3913 -44.82 1312.8833)" class="st3" cx="970" cy="690.3" rx="0.8" ry="0.5"/>
		<ellipse transform="matrix(0.773 -0.6345 0.6345 0.773 -220.1135 778.8463)" class="st4" cx="978.2" cy="697" rx="0.9" ry="0.3"/>
		<ellipse transform="matrix(0.5 -0.866 0.866 0.5 -112.7845 1195.9875)" class="st4" cx="979.4" cy="695.7" rx="0.5" ry="0.3"/>
	</g>
	<g>
		<circle class="st1" cx="1093.5" cy="627.5" r="6.4"/>
		<path class="st2" d="M1098,632c-2.5,2.5-6.6,2.5-9.1,0c-0.1-0.1-0.3-0.3-0.4-0.5c2.5,2.1,6.3,1.9,8.6-0.4c2.4-2.4,2.5-6.1,0.4-8.6
			c0.2,0.1,0.3,0.3,0.5,0.4C1100.5,625.5,1100.5,629.5,1098,632z"/>
		
			<ellipse transform="matrix(0.7885 -0.6151 0.6151 0.7885 -152.6888 802.7668)" class="st3" cx="1090.8" cy="623.4" rx="1.4" ry="0.5"/>
		
			<ellipse transform="matrix(0.3913 -0.9203 0.9203 0.3913 87.4352 1382.8218)" class="st3" cx="1089" cy="625.3" rx="0.8" ry="0.5"/>
		
			<ellipse transform="matrix(0.773 -0.6345 0.6345 0.773 -151.8495 839.5896)" class="st4" cx="1097.2" cy="632" rx="0.9" ry="0.3"/>
		<ellipse transform="matrix(0.5 -0.866 0.866 0.5 3.0037 1266.5475)" class="st4" cx="1098.4" cy="630.7" rx="0.5" ry="0.3"/>
	</g>
	<g>
		<circle class="st1" cx="1175.5" cy="487.5" r="6.4"/>
		<path class="st2" d="M1180.1,492.1c-2.5,2.5-6.6,2.5-9.1,0c-0.1-0.1-0.3-0.3-0.4-0.5c2.5,2.1,6.3,1.9,8.6-0.4
			c2.4-2.4,2.5-6.1,0.4-8.6c0.2,0.1,0.3,0.3,0.5,0.4C1182.6,485.5,1182.6,489.6,1180.1,492.1z"/>
		
			<ellipse transform="matrix(0.7885 -0.6151 0.6151 0.7885 -49.2536 823.5897)" class="st3" cx="1172.8" cy="483.4" rx="1.4" ry="0.5"/>
		
			<ellipse transform="matrix(0.3913 -0.9203 0.9203 0.3913 266.122 1373.0961)" class="st3" cx="1171" cy="485.4" rx="0.8" ry="0.5"/>
		<ellipse transform="matrix(0.773 -0.6345 0.6345 0.773 -44.4286 859.8284)" class="st4" cx="1179.1" cy="492" rx="0.9" ry="0.3"/>
		<ellipse transform="matrix(0.5 -0.866 0.866 0.5 165.191 1267.593)" class="st4" cx="1180.4" cy="490.7" rx="0.5" ry="0.3"/>
	</g>
	<g>
		<circle class="st1" cx="1202.5" cy="404.5" r="6.4"/>
		<path class="st2" d="M1207,409c-2.5,2.5-6.6,2.5-9.1,0c-0.1-0.1-0.3-0.3-0.4-0.5c2.5,2.1,6.3,1.9,8.6-0.4c2.4-2.4,2.5-6.1,0.4-8.6
			c0.2,0.1,0.3,0.3,0.5,0.4C1209.5,402.5,1209.5,406.5,1207,409z"/>
		
			<ellipse transform="matrix(0.7885 -0.6151 0.6151 0.7885 7.5368 822.6371)" class="st3" cx="1199.8" cy="400.4" rx="1.4" ry="0.5"/>
		
			<ellipse transform="matrix(0.3913 -0.9203 0.9203 0.3913 358.9985 1347.3766)" class="st3" cx="1198" cy="402.3" rx="0.8" ry="0.5"/>
		<ellipse transform="matrix(0.773 -0.6345 0.6345 0.773 14.392 858.1093)" class="st4" cx="1206.2" cy="408.9" rx="0.9" ry="0.3"/>
		<ellipse transform="matrix(0.5 -0.866 0.866 0.5 250.625 1249.4523)" class="st4" cx="1207.4" cy="407.7" rx="0.5" ry="0.3"/>
	</g>
	<g>
		<circle class="st1" cx="1020.5" cy="251" r="6.4"/>
		<path class="st2" d="M1025.1,255.6c-2.5,2.5-6.6,2.5-9.1,0c-0.1-0.1-0.3-0.3-0.4-0.5c2.5,2.1,6.3,1.9,8.6-0.4
			c2.4-2.4,2.5-6.1,0.4-8.6c0.2,0.1,0.3,0.3,0.5,0.4C1027.6,249,1027.6,253.1,1025.1,255.6z"/>
		
			<ellipse transform="matrix(0.7885 -0.6151 0.6151 0.7885 63.4278 678.2195)" class="st3" cx="1017.8" cy="246.9" rx="1.4" ry="0.5"/>
		
			<ellipse transform="matrix(0.3913 -0.9203 0.9203 0.3913 389.4039 1086.4949)" class="st3" cx="1016" cy="248.9" rx="0.8" ry="0.5"/>
		
			<ellipse transform="matrix(0.773 -0.6345 0.6345 0.773 70.4301 707.7802)" class="st4" cx="1024.1" cy="255.5" rx="0.9" ry="0.3"/>
		<ellipse transform="matrix(0.5 -0.866 0.866 0.5 292.5155 1015.1176)" class="st4" cx="1025.4" cy="254.2" rx="0.5" ry="0.3"/>
	</g>
	<g>
		<circle class="st1" cx="1137.5" cy="240.5" r="6.4"/>
		<path class="st2" d="M1142,245c-2.5,2.5-6.6,2.5-9.1,0c-0.1-0.1-0.3-0.3-0.4-0.5c2.5,2.1,6.3,1.9,8.6-0.4c2.4-2.4,2.5-6.1,0.4-8.6
			c0.2,0.1,0.3,0.3,0.5,0.4C1144.5,238.5,1144.5,242.5,1142,245z"/>
		
			<ellipse transform="matrix(0.7885 -0.6151 0.6151 0.7885 94.662 747.9618)" class="st3" cx="1134.8" cy="236.4" rx="1.4" ry="0.5"/>
		
			<ellipse transform="matrix(0.3913 -0.9203 0.9203 0.3913 470.3472 1187.728)" class="st3" cx="1133" cy="238.3" rx="0.8" ry="0.5"/>
		
			<ellipse transform="matrix(0.773 -0.6345 0.6345 0.773 103.6869 779.6267)" class="st4" cx="1141.1" cy="244.9" rx="0.9" ry="0.3"/>
		<ellipse transform="matrix(0.5 -0.866 0.866 0.5 360.1565 1111.1656)" class="st4" cx="1142.4" cy="243.7" rx="0.5" ry="0.3"/>
	</g>
	<g>
		<circle class="st1" cx="1294.5" cy="304.1" r="6.4"/>
		<path class="st2" d="M1299.1,308.6c-2.5,2.5-6.6,2.5-9.1,0c-0.1-0.1-0.3-0.3-0.4-0.5c2.5,2.1,6.3,1.9,8.6-0.4
			c2.4-2.4,2.5-6.1,0.4-8.6c0.2,0.1,0.3,0.3,0.5,0.4C1301.6,302.1,1301.6,306.1,1299.1,308.6z"/>
		
			<ellipse transform="matrix(0.7885 -0.6151 0.6151 0.7885 88.7446 857.9946)" class="st3" cx="1291.8" cy="300" rx="1.4" ry="0.5"/>
		
			<ellipse transform="matrix(0.3913 -0.9203 0.9203 0.3913 507.3787 1370.9545)" class="st3" cx="1290" cy="301.9" rx="0.8" ry="0.5"/>
		
			<ellipse transform="matrix(0.773 -0.6345 0.6345 0.773 98.9745 893.6918)" class="st4" cx="1298.2" cy="308.6" rx="0.9" ry="0.3"/>
		<ellipse transform="matrix(0.5 -0.866 0.866 0.5 383.556 1278.9575)" class="st4" cx="1299.4" cy="307.3" rx="0.5" ry="0.3"/>
	</g>
</g>
</svg>
