<?xml version="1.0" encoding="utf-8"?>
<!-- Generator: Adobe Illustrator 22.1.0, SVG Export Plug-In . SVG Version: 6.00 Build 0)  -->
<svg version="1.1" id="Layer_1" xmlns="http://www.w3.org/2000/svg" xmlns:xlink="http://www.w3.org/1999/xlink" x="0px" y="0px"
	 viewBox="0 0 482 344" style="enable-background:new 0 0 482 344;" xml:space="preserve">
<style type="text/css">
	.st0{opacity:0.5;}
	.st1{opacity:0.2;fill:#00C3FF;}
	.st2{opacity:5.000000e-02;}
	.st3{fill:#FFFFFF;}
	.st4{opacity:0.5;fill:#FFFFFF;}
</style>
<g class="st0">
	<circle class="st1" cx="404.1" cy="29.1" r="28.2"/>
	<path class="st2" d="M424,49c-11,11-28.8,11-39.8,0c-0.6-0.6-1.3-1.3-1.8-2c11.1,9.1,27.5,8.5,37.8-1.8c10.4-10.4,11-26.8,1.8-37.8
		c0.7,0.6,1.4,1.2,2,1.8C435,20.1,435,38,424,49z"/>
	<ellipse transform="matrix(0.7885 -0.6151 0.6151 0.7885 76.1356 243.1472)" class="st3" cx="391.6" cy="10.9" rx="6.1" ry="2"/>
	<ellipse transform="matrix(0.3913 -0.9203 0.9203 0.3913 215.6779 365.6437)" class="st3" cx="384.2" cy="19.8" rx="3.5" ry="2"/>
	<ellipse transform="matrix(0.773 -0.6345 0.6345 0.773 64.2932 277.3462)" class="st4" cx="419.7" cy="48.8" rx="4.1" ry="1.1"/>
	<ellipse transform="matrix(0.5 -0.866 0.866 0.5 175.4417 389.8552)" class="st4" cx="425.3" cy="43" rx="2.3" ry="1.1"/>
</g>
<g class="st0">
	<circle class="st1" cx="146.5" cy="75.4" r="28.2"/>
	<path class="st2" d="M166.4,95.3c-11,11-28.8,11-39.8,0c-0.6-0.6-1.3-1.3-1.8-2c11.1,9.1,27.5,8.5,37.8-1.8s11-26.8,1.8-37.8
		c0.7,0.6,1.4,1.2,2,1.8C177.4,66.5,177.4,84.3,166.4,95.3z"/>
	<ellipse transform="matrix(0.7885 -0.6151 0.6151 0.7885 -6.8593 94.499)" class="st3" cx="134" cy="57.2" rx="6.1" ry="2"/>
	<ellipse transform="matrix(0.3913 -0.9203 0.9203 0.3913 16.2361 156.7839)" class="st3" cx="126.6" cy="66.1" rx="3.5" ry="2"/>
	<ellipse transform="matrix(0.773 -0.6345 0.6345 0.773 -23.594 124.4251)" class="st4" cx="162.1" cy="95.2" rx="4.1" ry="1.1"/>
	<ellipse transform="matrix(0.5 -0.866 0.866 0.5 6.5101 189.9296)" class="st4" cx="167.7" cy="89.3" rx="2.3" ry="1.1"/>
</g>
<g class="st0">
	<circle class="st1" cx="280" cy="245.6" r="28.2"/>
	<path class="st2" d="M300,265.5c-11,11-28.8,11-39.8,0c-0.6-0.6-1.3-1.3-1.8-2c11.1,9.1,27.5,8.5,37.8-1.8
		c10.4-10.4,11-26.8,1.8-37.8c0.7,0.6,1.4,1.2,2,1.8C311,236.7,311,254.5,300,265.5z"/>
	<ellipse transform="matrix(0.7885 -0.6151 0.6151 0.7885 -83.285 212.6649)" class="st3" cx="267.5" cy="227.4" rx="6.1" ry="2"/>
	<ellipse transform="matrix(0.3913 -0.9203 0.9203 0.3913 -59.0768 383.3051)" class="st3" cx="260.2" cy="236.3" rx="3.5" ry="2"/>
	<ellipse transform="matrix(0.773 -0.6345 0.6345 0.773 -101.246 247.8182)" class="st4" cx="295.6" cy="265.4" rx="4.1" ry="1.1"/>
	<ellipse transform="matrix(0.5 -0.866 0.866 0.5 -74.0911 390.7097)" class="st4" cx="301.3" cy="259.5" rx="2.3" ry="1.1"/>
</g>
<g class="st0">
	<circle class="st1" cx="463.8" cy="269.3" r="18.2"/>
	<path class="st2" d="M476.7,282.2c-7.1,7.1-18.6,7.1-25.7,0c-0.4-0.4-0.8-0.9-1.2-1.3c7.1,5.9,17.7,5.5,24.4-1.2
		c6.7-6.7,7.1-17.3,1.2-24.4c0.4,0.4,0.9,0.8,1.3,1.2C483.8,263.6,483.8,275.1,476.7,282.2z"/>
	<ellipse transform="matrix(0.7885 -0.6151 0.6151 0.7885 -62.0383 334.8295)" class="st3" cx="455.8" cy="257.6" rx="4" ry="1.3"/>
	<ellipse transform="matrix(0.3913 -0.9203 0.9203 0.3913 32.1962 575.371)" class="st3" cx="451" cy="263.3" rx="2.3" ry="1.3"/>
	<ellipse transform="matrix(0.773 -0.6345 0.6345 0.773 -71.3829 364.7135)" class="st4" cx="473.9" cy="282.1" rx="2.6" ry="0.7"/>
	<ellipse transform="matrix(0.5 -0.866 0.866 0.5 -2.2517 552.7379)" class="st4" cx="477.6" cy="278.3" rx="1.5" ry="0.7"/>
</g>
<g class="st0">
	<circle class="st1" cx="301.3" cy="132.7" r="18.2"/>
	<path class="st2" d="M314.2,145.5c-7.1,7.1-18.6,7.1-25.7,0c-0.4-0.4-0.8-0.9-1.2-1.3c7.1,5.9,17.7,5.5,24.4-1.2
		c6.7-6.7,7.1-17.3,1.2-24.4c0.4,0.4,0.9,0.8,1.3,1.2C321.3,126.9,321.3,138.4,314.2,145.5z"/>
	<ellipse transform="matrix(0.7885 -0.6151 0.6151 0.7885 -12.3541 205.961)" class="st3" cx="293.3" cy="120.9" rx="4" ry="1.3"/>
	
		<ellipse transform="matrix(0.3913 -0.9203 0.9203 0.3913 59.0471 342.6331)" class="st3" cx="288.5" cy="126.7" rx="2.3" ry="1.3"/>
	<ellipse transform="matrix(0.773 -0.6345 0.6345 0.773 -21.5705 230.577)" class="st4" cx="311.4" cy="145.4" rx="2.6" ry="0.7"/>
	<ellipse transform="matrix(0.5 -0.866 0.866 0.5 34.8498 343.6662)" class="st4" cx="315" cy="141.7" rx="1.5" ry="0.7"/>
</g>
<g class="st0">
	<circle class="st1" cx="149.7" cy="325.8" r="18.2"/>
	<path class="st2" d="M162.5,338.7c-7.1,7.1-18.6,7.1-25.7,0c-0.4-0.4-0.8-0.9-1.2-1.3c7.1,5.9,17.7,5.5,24.4-1.2
		c6.7-6.7,7.1-17.3,1.2-24.4c0.4,0.4,0.9,0.8,1.3,1.2C169.6,320.1,169.6,331.6,162.5,338.7z"/>
	<ellipse transform="matrix(0.7885 -0.6151 0.6151 0.7885 -163.249 153.5436)" class="st3" cx="141.6" cy="314.1" rx="4" ry="1.3"/>
	
		<ellipse transform="matrix(0.3913 -0.9203 0.9203 0.3913 -211.0244 320.6504)" class="st3" cx="136.9" cy="319.8" rx="2.3" ry="1.3"/>
	
		<ellipse transform="matrix(0.773 -0.6345 0.6345 0.773 -178.5598 178.2164)" class="st4" cx="159.7" cy="338.6" rx="2.6" ry="0.7"/>
	<ellipse transform="matrix(0.5 -0.866 0.866 0.5 -208.2642 308.9138)" class="st4" cx="163.4" cy="334.8" rx="1.5" ry="0.7"/>
</g>
<g class="st0">
	<circle class="st1" cx="18.2" cy="201.8" r="18.2"/>
	<path class="st2" d="M31,214.6c-7.1,7.1-18.6,7.1-25.7,0c-0.4-0.4-0.8-0.9-1.2-1.3c7.1,5.9,17.7,5.5,24.4-1.2s7.1-17.3,1.2-24.4
		c0.4,0.4,0.9,0.8,1.3,1.2C38.1,196,38.1,207.5,31,214.6z"/>
	<ellipse transform="matrix(0.7885 -0.6151 0.6151 0.7885 -114.7507 46.4165)" class="st3" cx="10.1" cy="190" rx="4" ry="1.3"/>
	
		<ellipse transform="matrix(0.3913 -0.9203 0.9203 0.3913 -176.8855 124.1209)" class="st3" cx="5.4" cy="195.8" rx="2.3" ry="1.3"/>
	<ellipse transform="matrix(0.773 -0.6345 0.6345 0.773 -129.6965 66.6177)" class="st4" cx="28.2" cy="214.5" rx="2.6" ry="0.7"/>
	<ellipse transform="matrix(0.5 -0.866 0.866 0.5 -166.5625 132.9998)" class="st4" cx="31.9" cy="210.7" rx="1.5" ry="0.7"/>
</g>
</svg>
