<?xml version="1.0" encoding="utf-8"?>
<!-- Generator: Adobe Illustrator 22.1.0, SVG Export Plug-In . SVG Version: 6.00 Build 0)  -->
<svg version="1.1" id="Layer_1" xmlns="http://www.w3.org/2000/svg" xmlns:xlink="http://www.w3.org/1999/xlink" x="0px" y="0px"
	 viewBox="0 0 1301 952" style="enable-background:new 0 0 1301 952;" xml:space="preserve">
<style type="text/css">
	.st0{fill:#C2F1FF;}
</style>
<g>
	<path class="st0" d="M1043,63.5c0,1.4-1.1,2.5-2.5,2.5s-2.5-1.1-2.5-2.5s1.1-2.5,2.5-2.5S1043,62.1,1043,63.5 M344,43.5
		c0,1.4-1.1,2.5-2.5,2.5s-2.5-1.1-2.5-2.5s1.1-2.5,2.5-2.5S344,42.1,344,43.5 M199,572.5c0,1.4-1.1,2.5-2.5,2.5s-2.5-1.1-2.5-2.5
		s1.1-2.5,2.5-2.5S199,571.1,199,572.5 M241,391.5c0,1.4-1.1,2.5-2.5,2.5s-2.5-1.1-2.5-2.5s1.1-2.5,2.5-2.5S241,390.1,241,391.5
		 M905,92.5c0,1.4-1.1,2.5-2.5,2.5s-2.5-1.1-2.5-2.5s1.1-2.5,2.5-2.5S905,91.1,905,92.5 M681,12.5c0,1.4-1.1,2.5-2.5,2.5
		s-2.5-1.1-2.5-2.5s1.1-2.5,2.5-2.5S681,11.1,681,12.5 M426,213.5c0,1.4-1.1,2.5-2.5,2.5s-2.5-1.1-2.5-2.5s1.1-2.5,2.5-2.5
		S426,212.1,426,213.5 M475,63.5c0,1.4-1.1,2.5-2.5,2.5s-2.5-1.1-2.5-2.5c0-1.4,1.1-2.5,2.5-2.5S475,62.1,475,63.5 M875,2.5
		c0,1.4-1.1,2.5-2.5,2.5S870,3.9,870,2.5s1.1-2.5,2.5-2.5S875,1.1,875,2.5 M597.1,159.1c-0.3-1.3,0.5-2.7,1.9-3
		c1.3-0.3,2.7,0.5,3,1.9c0.3,1.3-0.5,2.7-1.9,3C598.7,161.2,597.4,160.4,597.1,159.1 M1018.1,249.1c-0.3-1.3,0.5-2.7,1.9-3
		c1.3-0.3,2.7,0.5,3,1.9c0.3,1.3-0.5,2.7-1.9,3C1019.7,251.2,1018.4,250.4,1018.1,249.1 M315.1,460.1c-0.3-1.3,0.5-2.7,1.9-3
		c1.3-0.3,2.7,0.5,3,1.9c0.3,1.3-0.5,2.7-1.9,3C316.7,462.2,315.4,461.4,315.1,460.1 M441.1,663.1c-0.3-1.3,0.5-2.7,1.9-3
		c1.3-0.3,2.7,0.5,3,1.9c0.3,1.3-0.5,2.7-1.9,3C442.7,665.2,441.4,664.4,441.1,663.1 M358.1,793.1c-0.3-1.3,0.5-2.7,1.9-3
		c1.3-0.3,2.7,0.5,3,1.9c0.3,1.3-0.5,2.7-1.9,3C359.7,795.2,358.4,794.4,358.1,793.1 M678.1,781.1c-0.3-1.3,0.5-2.7,1.9-3
		c1.3-0.3,2.7,0.5,3,1.9c0.3,1.3-0.5,2.7-1.9,3C679.7,783.2,678.4,782.4,678.1,781.1 M849.1,711.1c-0.3-1.3,0.5-2.7,1.9-3
		c1.3-0.3,2.7,0.5,3,1.9c0.3,1.3-0.5,2.7-1.9,3C850.7,713.2,849.4,712.4,849.1,711.1 M990.1,880.1c-0.3-1.3,0.5-2.7,1.9-3
		c1.3-0.3,2.7,0.5,3,1.9s-0.5,2.7-1.9,3C991.7,882.2,990.4,881.4,990.1,880.1 M1173.1,488.1c-0.3-1.3,0.5-2.7,1.9-3
		c1.3-0.3,2.7,0.5,3,1.9c0.3,1.3-0.5,2.7-1.9,3C1174.7,490.2,1173.4,489.4,1173.1,488.1 M1296.1,304.1c-0.3-1.3,0.5-2.7,1.9-3
		c1.3-0.3,2.7,0.5,3,1.9c0.3,1.3-0.5,2.7-1.9,3C1297.7,306.2,1296.4,305.4,1296.1,304.1 M807,816.5c0,1.4-1.1,2.5-2.5,2.5
		s-2.5-1.1-2.5-2.5s1.1-2.5,2.5-2.5S807,815.1,807,816.5 M733,949.5c0,1.4-1.1,2.5-2.5,2.5s-2.5-1.1-2.5-2.5s1.1-2.5,2.5-2.5
		S733,948.1,733,949.5 M977,692.5c0,1.4-1.1,2.5-2.5,2.5s-2.5-1.1-2.5-2.5s1.1-2.5,2.5-2.5S977,691.1,977,692.5 M233,708.5
		c0,1.4-1.1,2.5-2.5,2.5s-2.5-1.1-2.5-2.5s1.1-2.5,2.5-2.5S233,707.1,233,708.5 M1205,404.5c0,1.4-1.1,2.5-2.5,2.5s-2.5-1.1-2.5-2.5
		s1.1-2.5,2.5-2.5S1205,403.1,1205,404.5 M497,888.5c0,1.4-1.1,2.5-2.5,2.5s-2.5-1.1-2.5-2.5s1.1-2.5,2.5-2.5S497,887.1,497,888.5
		 M5,858.5c0,1.4-1.1,2.5-2.5,2.5S0,859.9,0,858.5s1.1-2.5,2.5-2.5S5,857.1,5,858.5 M65,218.5c0,1.4-1.1,2.5-2.5,2.5
		s-2.5-1.1-2.5-2.5s1.1-2.5,2.5-2.5S65,217.1,65,218.5 M1183,835.5c0,1.4-1.1,2.5-2.5,2.5s-2.5-1.1-2.5-2.5s1.1-2.5,2.5-2.5
		S1183,834.1,1183,835.5 M1096,627.5c0,1.4-1.1,2.5-2.5,2.5s-2.5-1.1-2.5-2.5s1.1-2.5,2.5-2.5S1096,626.1,1096,627.5 M1140,240.5
		c0,1.4-1.1,2.5-2.5,2.5s-2.5-1.1-2.5-2.5s1.1-2.5,2.5-2.5S1140,239.1,1140,240.5 M618,98.5c0,1.4-1.1,2.5-2.5,2.5s-2.5-1.1-2.5-2.5
		s1.1-2.5,2.5-2.5S618,97.1,618,98.5"/>
</g>
</svg>
