<?xml version="1.0" encoding="utf-8"?>
<!-- Generator: Adobe Illustrator 22.1.0, SVG Export Plug-In . SVG Version: 6.00 Build 0)  -->
<svg version="1.1" id="Layer_1" xmlns="http://www.w3.org/2000/svg" xmlns:xlink="http://www.w3.org/1999/xlink" x="0px" y="0px"
	 viewBox="0 0 475 229" style="enable-background:new 0 0 475 229;" xml:space="preserve">
<style type="text/css">
	.st0{opacity:0.5;}
	.st1{opacity:0.2;fill:#00C3FF;}
	.st2{opacity:5.000000e-02;}
	.st3{fill:#FFFFFF;}
	.st4{opacity:0.5;fill:#FFFFFF;}
</style>
<g class="st0">
	<circle class="st1" cx="265.6" cy="28.2" r="28.2"/>
	<path class="st2" d="M285.5,48.1c-11,11-28.8,11-39.8,0c-0.6-0.6-1.3-1.3-1.8-2c11.1,9.1,27.5,8.5,37.8-1.8
		c10.4-10.4,11-26.8,1.8-37.8c0.7,0.6,1.4,1.2,2,1.8C296.5,19.2,296.5,37.1,285.5,48.1z"/>
	<ellipse transform="matrix(0.7885 -0.6151 0.6151 0.7885 47.3913 157.7902)" class="st3" cx="253.1" cy="10" rx="6.1" ry="2"/>
	<ellipse transform="matrix(0.3913 -0.9203 0.9203 0.3913 132.214 237.6777)" class="st3" cx="245.8" cy="18.9" rx="3.5" ry="2"/>
	<ellipse transform="matrix(0.773 -0.6345 0.6345 0.773 33.419 189.2925)" class="st4" cx="281.2" cy="48" rx="4.1" ry="1.1"/>
	<ellipse transform="matrix(0.5 -0.866 0.866 0.5 106.9784 269.495)" class="st4" cx="286.9" cy="42.1" rx="2.3" ry="1.1"/>
</g>
<g class="st0">
	<circle class="st1" cx="137.6" cy="101.3" r="28.2"/>
	<path class="st2" d="M157.5,121.2c-11,11-28.8,11-39.8,0c-0.6-0.6-1.3-1.3-1.8-2c11.1,9.1,27.5,8.5,37.8-1.8
		c10.4-10.4,11-26.8,1.8-37.8c0.7,0.6,1.4,1.2,2,1.8C168.5,92.3,168.5,110.2,157.5,121.2z"/>
	<ellipse transform="matrix(0.7885 -0.6151 0.6151 0.7885 -24.656 94.501)" class="st3" cx="125.1" cy="83.1" rx="6.1" ry="2"/>
	<ellipse transform="matrix(0.3913 -0.9203 0.9203 0.3913 -12.9893 164.3472)" class="st3" cx="117.7" cy="92" rx="3.5" ry="2"/>
	<ellipse transform="matrix(0.773 -0.6345 0.6345 0.773 -42.0299 124.656)" class="st4" cx="153.2" cy="121.1" rx="4.1" ry="1.1"/>
	<ellipse transform="matrix(0.5 -0.866 0.866 0.5 -20.3454 195.1632)" class="st4" cx="158.8" cy="115.2" rx="2.3" ry="1.1"/>
</g>
<g class="st0">
	<circle class="st1" cx="446.8" cy="165.7" r="28.2"/>
	<path class="st2" d="M466.7,185.7c-11,11-28.8,11-39.8,0c-0.6-0.6-1.3-1.3-1.8-2c11.1,9.1,27.5,8.5,37.8-1.8
		c10.4-10.4,11-26.8,1.8-37.8c0.7,0.6,1.4,1.2,2,1.8C477.7,156.8,477.7,174.7,466.7,185.7z"/>
	<ellipse transform="matrix(0.7885 -0.6151 0.6151 0.7885 1.1109 298.369)" class="st3" cx="434.3" cy="147.6" rx="6.1" ry="2"/>
	<ellipse transform="matrix(0.3913 -0.9203 0.9203 0.3913 115.9274 488.2008)" class="st3" cx="427" cy="156.5" rx="3.5" ry="2"/>
	<ellipse transform="matrix(0.773 -0.6345 0.6345 0.773 -12.7167 335.5161)" class="st4" cx="462.4" cy="185.5" rx="4.1" ry="1.1"/>
	<ellipse transform="matrix(0.5 -0.866 0.866 0.5 78.4552 495.2377)" class="st4" cx="468.1" cy="179.7" rx="2.3" ry="1.1"/>
</g>
<g class="st0">
	<circle class="st1" cx="218" cy="213.4" r="15.6"/>
	<path class="st2" d="M229.1,224.4c-6.1,6.1-16,6.1-22.1,0c-0.4-0.4-0.7-0.7-1-1.1c6.1,5.1,15.2,4.7,20.9-1s6.1-14.8,1-20.9
		c0.4,0.3,0.8,0.7,1.1,1C235.2,208.5,235.2,218.3,229.1,224.4z"/>
	
		<ellipse transform="matrix(0.7885 -0.6151 0.6151 0.7885 -80.4145 172.8723)" class="st3" cx="211.1" cy="203.3" rx="3.4" ry="1.1"/>
	<ellipse transform="matrix(0.3913 -0.9203 0.9203 0.3913 -65.6239 317.3258)" class="st3" cx="207.1" cy="208.3" rx="2" ry="1.1"/>
	<ellipse transform="matrix(0.773 -0.6345 0.6345 0.773 -90.8824 194.7566)" class="st4" cx="226.7" cy="224.4" rx="2.3" ry="0.6"/>
	<ellipse transform="matrix(0.5 -0.866 0.866 0.5 -76.5839 309.5934)" class="st4" cx="229.8" cy="221.1" rx="1.3" ry="0.6"/>
</g>
<g class="st0">
	<circle class="st1" cx="316.7" cy="153.2" r="15.6"/>
	<path class="st2" d="M327.8,164.2c-6.1,6.1-16,6.1-22.1,0c-0.4-0.4-0.7-0.7-1-1.1c6.1,5.1,15.2,4.7,20.9-1c5.7-5.7,6.1-14.8,1-20.9
		c0.4,0.3,0.8,0.7,1.1,1C333.9,148.2,333.9,158.1,327.8,164.2z"/>
	
		<ellipse transform="matrix(0.7885 -0.6151 0.6151 0.7885 -22.4854 220.8355)" class="st3" cx="309.8" cy="143.1" rx="3.4" ry="1.1"/>
	<ellipse transform="matrix(0.3913 -0.9203 0.9203 0.3913 49.8836 371.485)" class="st3" cx="305.8" cy="148" rx="2" ry="1.1"/>
	<ellipse transform="matrix(0.773 -0.6345 0.6345 0.773 -30.2558 243.6981)" class="st4" cx="325.4" cy="164.1" rx="2.3" ry="0.6"/>
	<ellipse transform="matrix(0.5 -0.866 0.866 0.5 24.9305 364.9471)" class="st4" cx="328.5" cy="160.9" rx="1.3" ry="0.6"/>
</g>
<g class="st0">
	<circle class="st1" cx="15.6" cy="130.8" r="15.6"/>
	<path class="st2" d="M26.6,141.8c-6.1,6.1-16,6.1-22.1,0c-0.4-0.4-0.7-0.7-1-1.1c6.1,5.1,15.2,4.7,20.9-1s6.1-14.8,1-20.9
		c0.4,0.3,0.8,0.7,1.1,1C32.7,125.9,32.7,135.7,26.6,141.8z"/>
	<ellipse transform="matrix(0.7885 -0.6151 0.6151 0.7885 -72.4281 30.8756)" class="st3" cx="8.7" cy="120.7" rx="3.4" ry="1.1"/>
	<ellipse transform="matrix(0.3913 -0.9203 0.9203 0.3913 -112.8275 80.7413)" class="st3" cx="4.6" cy="125.7" rx="2" ry="1.1"/>
	<ellipse transform="matrix(0.773 -0.6345 0.6345 0.773 -84.4345 47.5564)" class="st4" cx="24.2" cy="141.8" rx="2.3" ry="0.6"/>
	<ellipse transform="matrix(0.5 -0.866 0.866 0.5 -106.2651 92.9658)" class="st4" cx="27.4" cy="138.5" rx="1.3" ry="0.6"/>
</g>
</svg>
