<?xml version="1.0" encoding="utf-8"?>
<!-- Generator: Adobe Illustrator 22.1.0, SVG Export Plug-In . SVG Version: 6.00 Build 0)  -->
<svg version="1.1" id="Layer_1" xmlns="http://www.w3.org/2000/svg" xmlns:xlink="http://www.w3.org/1999/xlink" x="0px" y="0px"
	 viewBox="0 0 1301 952" style="enable-background:new 0 0 1301 952;" xml:space="preserve">
<style type="text/css">
	.st0{opacity:0.5;}
	.st1{opacity:0.2;fill:#00C3FF;}
	.st2{opacity:5.000000e-02;}
	.st3{fill:#FFFFFF;}
	.st4{opacity:0.5;fill:#FFFFFF;}
</style>
<g class="st0">
	<g>
		<circle class="st1" cx="424.9" cy="213.1" r="6.4"/>
		<path class="st2" d="M429.4,217.6c-2.5,2.5-6.6,2.5-9.1,0c-0.1-0.1-0.3-0.3-0.4-0.5c2.5,2.1,6.3,1.9,8.6-0.4
			c2.4-2.4,2.5-6.1,0.4-8.6c0.2,0.1,0.3,0.3,0.5,0.4C431.9,211.1,431.9,215.1,429.4,217.6z"/>
		<ellipse transform="matrix(0.7885 -0.6151 0.6151 0.7885 -39.2559 303.7908)" class="st3" cx="422" cy="209" rx="1.4" ry="0.5"/>
		<ellipse transform="matrix(0.3913 -0.9203 0.9203 0.3913 61.6996 515.2708)" class="st3" cx="420.4" cy="211" rx="0.8" ry="0.5"/>
		
			<ellipse transform="matrix(0.773 -0.6345 0.6345 0.773 -40.7952 321.2344)" class="st4" cx="428.4" cy="217.6" rx="0.9" ry="0.3"/>
		<ellipse transform="matrix(0.5 -0.866 0.866 0.5 27.5586 480.2991)" class="st4" cx="429.7" cy="216.3" rx="0.5" ry="0.3"/>
	</g>
	<g>
		<circle class="st1" cx="341.6" cy="43.5" r="6.4"/>
		<path class="st2" d="M346.2,48c-2.5,2.5-6.6,2.5-9.1,0c-0.1-0.1-0.3-0.3-0.4-0.5c2.5,2.1,6.3,1.9,8.6-0.4c2.4-2.4,2.5-6.1,0.4-8.6
			c0.2,0.1,0.3,0.3,0.5,0.4C348.7,41.5,348.7,45.5,346.2,48z"/>
		
			<ellipse transform="matrix(0.7885 -0.6151 0.6151 0.7885 47.4527 216.6946)" class="st3" cx="338.8" cy="39.4" rx="1.4" ry="0.5"/>
		
			<ellipse transform="matrix(0.3913 -0.9203 0.9203 0.3913 167.0977 335.4052)" class="st3" cx="337.1" cy="41.4" rx="0.8" ry="0.5"/>
		<ellipse transform="matrix(0.773 -0.6345 0.6345 0.773 47.9086 229.8949)" class="st4" cx="345.2" cy="48" rx="0.9" ry="0.3"/>
		<ellipse transform="matrix(0.5 -0.866 0.866 0.5 132.8087 323.3826)" class="st4" cx="346.5" cy="46.7" rx="0.5" ry="0.3"/>
	</g>
	<g>
		<circle class="st1" cx="472.5" cy="63.5" r="6.4"/>
		<path class="st2" d="M477,68c-2.5,2.5-6.6,2.5-9.1,0c-0.1-0.1-0.3-0.3-0.4-0.5c2.5,2.1,6.3,1.9,8.6-0.4c2.4-2.4,2.5-6.1,0.4-8.6
			c0.2,0.1,0.3,0.3,0.5,0.4C479.5,61.5,479.5,65.5,477,68z"/>
		
			<ellipse transform="matrix(0.7885 -0.6151 0.6151 0.7885 62.8391 301.4329)" class="st3" cx="469.7" cy="59.4" rx="1.4" ry="0.5"/>
		<ellipse transform="matrix(0.3913 -0.9203 0.9203 0.3913 228.362 468.0294)" class="st3" cx="468" cy="61.4" rx="0.8" ry="0.5"/>
		<ellipse transform="matrix(0.773 -0.6345 0.6345 0.773 64.937 317.4794)" class="st4" cx="476.1" cy="68" rx="0.9" ry="0.3"/>
		<ellipse transform="matrix(0.5 -0.866 0.866 0.5 180.9323 446.7351)" class="st4" cx="477.4" cy="66.7" rx="0.5" ry="0.3"/>
	</g>
	<g>
		<circle class="st1" cx="614.8" cy="98.2" r="6.4"/>
		<path class="st2" d="M619.3,102.7c-2.5,2.5-6.6,2.5-9.1,0c-0.1-0.1-0.3-0.3-0.4-0.5c2.5,2.1,6.3,1.9,8.6-0.4
			c2.4-2.4,2.5-6.1,0.4-8.6c0.2,0.1,0.3,0.3,0.5,0.4C621.8,96.1,621.8,100.2,619.3,102.7z"/>
		<ellipse transform="matrix(0.7885 -0.6151 0.6151 0.7885 71.6138 396.2798)" class="st3" cx="611.9" cy="94" rx="1.4" ry="0.5"/>
		
			<ellipse transform="matrix(0.3913 -0.9203 0.9203 0.3913 283.0622 620.063)" class="st3" cx="610.3" cy="96.1" rx="0.8" ry="0.5"/>
		<ellipse transform="matrix(0.773 -0.6345 0.6345 0.773 75.2461 415.6206)" class="st4" cx="618.3" cy="102.7" rx="0.9" ry="0.3"/>
		<ellipse transform="matrix(0.5 -0.866 0.866 0.5 222.0493 587.2852)" class="st4" cx="619.6" cy="101.3" rx="0.5" ry="0.3"/>
	</g>
	<g>
		<circle class="st1" cx="599.5" cy="158.5" r="6.4"/>
		<path class="st2" d="M604.1,163.1c-2.5,2.5-6.6,2.5-9.1,0c-0.1-0.1-0.3-0.3-0.4-0.5c2.5,2.1,6.3,1.9,8.6-0.4
			c2.4-2.4,2.5-6.1,0.4-8.6c0.2,0.1,0.3,0.3,0.5,0.4C606.6,156.5,606.6,160.6,604.1,163.1z"/>
		
			<ellipse transform="matrix(0.7885 -0.6151 0.6151 0.7885 31.2613 399.6831)" class="st3" cx="596.7" cy="154.4" rx="1.4" ry="0.5"/>
		
			<ellipse transform="matrix(0.3913 -0.9203 0.9203 0.3913 218.2396 642.7934)" class="st3" cx="595" cy="156.4" rx="0.8" ry="0.5"/>
		<ellipse transform="matrix(0.773 -0.6345 0.6345 0.773 33.4878 419.6649)" class="st4" cx="603.1" cy="163" rx="0.9" ry="0.3"/>
		<ellipse transform="matrix(0.5 -0.866 0.866 0.5 162.1555 604.2806)" class="st4" cx="604.4" cy="161.7" rx="0.5" ry="0.3"/>
	</g>
	<g>
		<circle class="st1" cx="678.1" cy="12.5" r="6.4"/>
		<path class="st2" d="M682.7,17c-2.5,2.5-6.6,2.5-9.1,0c-0.1-0.1-0.3-0.3-0.4-0.5c2.5,2.1,6.3,1.9,8.6-0.4c2.4-2.4,2.5-6.1,0.4-8.6
			c0.2,0.1,0.3,0.3,0.5,0.4C685.2,10.5,685.2,14.5,682.7,17z"/>
		
			<ellipse transform="matrix(0.7885 -0.6151 0.6151 0.7885 137.7037 417.1134)" class="st3" cx="675.3" cy="8.4" rx="1.4" ry="0.5"/>
		
			<ellipse transform="matrix(0.3913 -0.9203 0.9203 0.3913 400.4473 626.2021)" class="st3" cx="673.6" cy="10.4" rx="0.8" ry="0.5"/>
		<ellipse transform="matrix(0.773 -0.6345 0.6345 0.773 143.9779 436.353)" class="st4" cx="681.7" cy="17" rx="0.9" ry="0.3"/>
		<ellipse transform="matrix(0.5 -0.866 0.866 0.5 327.9055 599.3002)" class="st4" cx="683" cy="15.7" rx="0.5" ry="0.3"/>
	</g>
	<g>
		<circle class="st1" cx="872.5" cy="6.5" r="6.4"/>
		<path class="st2" d="M877,11c-2.5,2.5-6.6,2.5-9.1,0c-0.1-0.1-0.3-0.3-0.4-0.5c2.5,2.1,6.3,1.9,8.6-0.4c2.4-2.4,2.5-6.1,0.4-8.6
			c0.2,0.1,0.3,0.3,0.5,0.4C879.5,4.4,879.5,8.5,877,11z"/>
		
			<ellipse transform="matrix(0.7885 -0.6151 0.6151 0.7885 182.5419 535.4005)" class="st3" cx="869.7" cy="2.3" rx="1.4" ry="0.5"/>
		<ellipse transform="matrix(0.3913 -0.9203 0.9203 0.3913 524.3295 801.4103)" class="st3" cx="868" cy="4.3" rx="0.8" ry="0.5"/>
		<ellipse transform="matrix(0.773 -0.6345 0.6345 0.773 191.9474 558.3127)" class="st4" cx="876.1" cy="11" rx="0.9" ry="0.3"/>
		<ellipse transform="matrix(0.5 -0.866 0.866 0.5 430.3334 764.6235)" class="st4" cx="877.4" cy="9.6" rx="0.5" ry="0.3"/>
	</g>
	<g>
		<circle class="st1" cx="902.5" cy="92.5" r="6.4"/>
		<path class="st2" d="M907,97c-2.5,2.5-6.6,2.5-9.1,0c-0.1-0.1-0.3-0.3-0.4-0.5c2.5,2.1,6.3,1.9,8.6-0.4c2.4-2.4,2.5-6.1,0.4-8.6
			c0.2,0.1,0.3,0.3,0.5,0.4C909.5,90.5,909.5,94.5,907,97z"/>
		
			<ellipse transform="matrix(0.7885 -0.6151 0.6151 0.7885 135.9639 572.0547)" class="st3" cx="899.7" cy="88.4" rx="1.4" ry="0.5"/>
		<ellipse transform="matrix(0.3913 -0.9203 0.9203 0.3913 463.408 881.3912)" class="st3" cx="898" cy="90.4" rx="0.8" ry="0.5"/>
		<ellipse transform="matrix(0.773 -0.6345 0.6345 0.773 144.1674 596.8825)" class="st4" cx="906.1" cy="97" rx="0.9" ry="0.3"/>
		<ellipse transform="matrix(0.5 -0.866 0.866 0.5 370.8176 833.626)" class="st4" cx="907.4" cy="95.7" rx="0.5" ry="0.3"/>
	</g>
	<g>
		<circle class="st1" cx="1040.5" cy="64" r="6.4"/>
		<path class="st2" d="M1045,68.5c-2.5,2.5-6.6,2.5-9.1,0c-0.1-0.1-0.3-0.3-0.4-0.5c2.5,2.1,6.3,1.9,8.6-0.4
			c2.4-2.4,2.5-6.1,0.4-8.6c0.2,0.1,0.3,0.3,0.5,0.4C1047.5,61.9,1047.5,66,1045,68.5z"/>
		
			<ellipse transform="matrix(0.7885 -0.6151 0.6151 0.7885 182.7063 650.9009)" class="st3" cx="1037.7" cy="59.8" rx="1.4" ry="0.5"/>
		
			<ellipse transform="matrix(0.3913 -0.9203 0.9203 0.3913 573.6631 991.0194)" class="st3" cx="1036" cy="61.9" rx="0.8" ry="0.5"/>
		
			<ellipse transform="matrix(0.773 -0.6345 0.6345 0.773 193.6024 677.9601)" class="st4" cx="1044.1" cy="68.5" rx="0.9" ry="0.3"/>
		<ellipse transform="matrix(0.5 -0.866 0.866 0.5 464.5272 938.8714)" class="st4" cx="1045.4" cy="67.1" rx="0.5" ry="0.3"/>
	</g>
	<g>
		<circle class="st1" cx="62.5" cy="217.6" r="6.4"/>
		<path class="st2" d="M67,222.2c-2.5,2.5-6.6,2.5-9.1,0c-0.1-0.1-0.3-0.3-0.4-0.5c2.5,2.1,6.3,1.9,8.6-0.4s2.5-6.1,0.4-8.6
			c0.2,0.1,0.3,0.3,0.5,0.4C69.5,215.6,69.5,219.6,67,222.2z"/>
		
			<ellipse transform="matrix(0.7885 -0.6151 0.6151 0.7885 -118.6874 81.8494)" class="st3" cx="59.7" cy="213.5" rx="1.4" ry="0.5"/>
		
			<ellipse transform="matrix(0.3913 -0.9203 0.9203 0.3913 -163.0245 184.5327)" class="st3" cx="58" cy="215.5" rx="0.8" ry="0.5"/>
		<ellipse transform="matrix(0.773 -0.6345 0.6345 0.773 -125.9331 92.3415)" class="st4" cx="66.1" cy="222.1" rx="0.9" ry="0.3"/>
		<ellipse transform="matrix(0.5 -0.866 0.866 0.5 -157.5366 168.723)" class="st4" cx="67.4" cy="220.8" rx="0.5" ry="0.3"/>
	</g>
	<g>
		<circle class="st1" cx="238.5" cy="391.5" r="6.4"/>
		<path class="st2" d="M243,396c-2.5,2.5-6.6,2.5-9.1,0c-0.1-0.1-0.3-0.3-0.4-0.5c2.5,2.1,6.3,1.9,8.6-0.4c2.4-2.4,2.5-6.1,0.4-8.6
			c0.2,0.1,0.3,0.3,0.5,0.4C245.5,389.5,245.5,393.5,243,396z"/>
		
			<ellipse transform="matrix(0.7885 -0.6151 0.6151 0.7885 -188.4096 226.8879)" class="st3" cx="235.7" cy="387.4" rx="1.4" ry="0.5"/>
		
			<ellipse transform="matrix(0.3913 -0.9203 0.9203 0.3913 -215.9136 452.3375)" class="st3" cx="234" cy="389.4" rx="0.8" ry="0.5"/>
		<ellipse transform="matrix(0.773 -0.6345 0.6345 0.773 -196.2954 243.4864)" class="st4" cx="242.1" cy="396" rx="0.9" ry="0.3"/>
		<ellipse transform="matrix(0.5 -0.866 0.866 0.5 -220.124 408.0852)" class="st4" cx="243.4" cy="394.7" rx="0.5" ry="0.3"/>
	</g>
	<g>
		<circle class="st1" cx="317.5" cy="459.5" r="6.4"/>
		<path class="st2" d="M322.1,464.1c-2.5,2.5-6.6,2.5-9.1,0c-0.1-0.1-0.3-0.3-0.4-0.5c2.5,2.1,6.3,1.9,8.6-0.4
			c2.4-2.4,2.5-6.1,0.4-8.6c0.2,0.1,0.3,0.3,0.5,0.4C324.6,457.5,324.6,461.6,322.1,464.1z"/>
		
			<ellipse transform="matrix(0.7885 -0.6151 0.6151 0.7885 -213.5341 289.9024)" class="st3" cx="314.7" cy="455.4" rx="1.4" ry="0.5"/>
		
			<ellipse transform="matrix(0.3913 -0.9203 0.9203 0.3913 -230.4059 566.4948)" class="st3" cx="313" cy="457.4" rx="0.8" ry="0.5"/>
		<ellipse transform="matrix(0.773 -0.6345 0.6345 0.773 -221.5123 309.0874)" class="st4" cx="321.1" cy="464" rx="0.9" ry="0.3"/>
		<ellipse transform="matrix(0.5 -0.866 0.866 0.5 -239.5181 510.5614)" class="st4" cx="322.4" cy="462.7" rx="0.5" ry="0.3"/>
	</g>
	<g>
		<circle class="st1" cx="196.5" cy="572.5" r="6.4"/>
		<path class="st2" d="M201,577c-2.5,2.5-6.6,2.5-9.1,0c-0.1-0.1-0.3-0.3-0.4-0.5c2.5,2.1,6.3,1.9,8.6-0.4c2.4-2.4,2.5-6.1,0.4-8.6
			c0.2,0.1,0.3,0.3,0.5,0.4C203.5,570.5,203.5,574.5,201,577z"/>
		
			<ellipse transform="matrix(0.7885 -0.6151 0.6151 0.7885 -308.6249 239.3431)" class="st3" cx="193.7" cy="568.4" rx="1.4" ry="0.5"/>
		
			<ellipse transform="matrix(0.3913 -0.9203 0.9203 0.3913 -408.0446 523.8582)" class="st3" cx="192" cy="570.4" rx="0.8" ry="0.5"/>
		<ellipse transform="matrix(0.773 -0.6345 0.6345 0.773 -320.669 257.9343)" class="st4" cx="200.1" cy="577" rx="0.9" ry="0.3"/>
		<ellipse transform="matrix(0.5 -0.866 0.866 0.5 -397.8746 462.2121)" class="st4" cx="201.4" cy="575.7" rx="0.5" ry="0.3"/>
	</g>
	<g>
		<circle class="st1" cx="230.5" cy="708.5" r="6.4"/>
		<path class="st2" d="M235,713c-2.5,2.5-6.6,2.5-9.1,0c-0.1-0.1-0.3-0.3-0.4-0.5c2.5,2.1,6.3,1.9,8.6-0.4c2.4-2.4,2.5-6.1,0.4-8.6
			c0.2,0.1,0.3,0.3,0.5,0.4C237.5,706.5,237.5,710.5,235,713z"/>
		
			<ellipse transform="matrix(0.7885 -0.6151 0.6151 0.7885 -385.0843 289.0255)" class="st3" cx="227.7" cy="704.4" rx="1.4" ry="0.5"/>
		
			<ellipse transform="matrix(0.3913 -0.9203 0.9203 0.3913 -512.5042 637.9277)" class="st3" cx="226" cy="706.4" rx="0.8" ry="0.5"/>
		<ellipse transform="matrix(0.773 -0.6345 0.6345 0.773 -399.2363 310.3843)" class="st4" cx="234.1" cy="713" rx="0.9" ry="0.3"/>
		<ellipse transform="matrix(0.5 -0.866 0.866 0.5 -498.6541 559.657)" class="st4" cx="235.4" cy="711.7" rx="0.5" ry="0.3"/>
	</g>
	<g>
		<circle class="st1" cx="443.5" cy="662.5" r="6.4"/>
		<path class="st2" d="M448.1,667.1c-2.5,2.5-6.6,2.5-9.1,0c-0.1-0.1-0.3-0.3-0.4-0.5c2.5,2.1,6.3,1.9,8.6-0.4
			c2.4-2.4,2.5-6.1,0.4-8.6c0.2,0.1,0.3,0.3,0.5,0.4C450.6,660.5,450.6,664.6,448.1,667.1z"/>
		
			<ellipse transform="matrix(0.7885 -0.6151 0.6151 0.7885 -311.7425 410.3459)" class="st3" cx="440.7" cy="658.4" rx="1.4" ry="0.5"/>
		
			<ellipse transform="matrix(0.3913 -0.9203 0.9203 0.3913 -340.5238 806.0095)" class="st3" cx="439" cy="660.4" rx="0.8" ry="0.5"/>
		<ellipse transform="matrix(0.773 -0.6345 0.6345 0.773 -321.7003 435.12)" class="st4" cx="447.1" cy="667" rx="0.9" ry="0.3"/>
		<ellipse transform="matrix(0.5 -0.866 0.866 0.5 -352.3213 721.1806)" class="st4" cx="448.4" cy="665.7" rx="0.5" ry="0.3"/>
	</g>
	<g>
		<circle class="st1" cx="6.4" cy="861" r="6.4"/>
		<path class="st2" d="M11,865.5c-2.5,2.5-6.6,2.5-9.1,0c-0.1-0.1-0.3-0.3-0.4-0.5c2.5,2.1,6.3,1.9,8.6-0.4c2.4-2.4,2.5-6.1,0.4-8.6
			c0.2,0.1,0.3,0.3,0.5,0.4C13.5,859,13.5,863,11,865.5z"/>
		
			<ellipse transform="matrix(0.7885 -0.6151 0.6151 0.7885 -526.2871 183.4561)" class="st3" cx="3.6" cy="856.9" rx="1.4" ry="0.5"/>
		
			<ellipse transform="matrix(0.3913 -0.9203 0.9203 0.3913 -789.2374 524.5399)" class="st3" cx="1.9" cy="858.9" rx="0.8" ry="0.5"/>
		<ellipse transform="matrix(0.773 -0.6345 0.6345 0.773 -546.8685 202.8378)" class="st4" cx="10" cy="865.5" rx="0.9" ry="0.3"/>
		<ellipse transform="matrix(0.5 -0.866 0.866 0.5 -742.7635 441.847)" class="st4" cx="11.3" cy="864.2" rx="0.5" ry="0.3"/>
	</g>
	<g>
		<circle class="st1" cx="360.5" cy="792.5" r="6.4"/>
		<path class="st2" d="M365.1,797.1c-2.5,2.5-6.6,2.5-9.1,0c-0.1-0.1-0.3-0.3-0.4-0.5c2.5,2.1,6.3,1.9,8.6-0.4
			c2.4-2.4,2.5-6.1,0.4-8.6c0.2,0.1,0.3,0.3,0.5,0.4C367.6,790.5,367.6,794.6,365.1,797.1z"/>
		
			<ellipse transform="matrix(0.7885 -0.6151 0.6151 0.7885 -409.2616 386.794)" class="st3" cx="357.7" cy="788.4" rx="1.4" ry="0.5"/>
		
			<ellipse transform="matrix(0.3913 -0.9203 0.9203 0.3913 -510.6776 808.757)" class="st3" cx="356" cy="790.4" rx="0.8" ry="0.5"/>
		<ellipse transform="matrix(0.773 -0.6345 0.6345 0.773 -423.0253 411.9757)" class="st4" cx="364.1" cy="797" rx="0.9" ry="0.3"/>
		<ellipse transform="matrix(0.5 -0.866 0.866 0.5 -506.4046 714.3005)" class="st4" cx="365.4" cy="795.7" rx="0.5" ry="0.3"/>
	</g>
	<g>
		<circle class="st1" cx="494.5" cy="888.5" r="6.4"/>
		<path class="st2" d="M499,893c-2.5,2.5-6.6,2.5-9.1,0c-0.1-0.1-0.3-0.3-0.4-0.5c2.5,2.1,6.3,1.9,8.6-0.4c2.4-2.4,2.5-6.1,0.4-8.6
			c0.2,0.1,0.3,0.3,0.5,0.4C501.5,886.5,501.5,890.5,499,893z"/>
		
			<ellipse transform="matrix(0.7885 -0.6151 0.6151 0.7885 -439.9532 489.4855)" class="st3" cx="491.7" cy="884.4" rx="1.4" ry="0.5"/>
		
			<ellipse transform="matrix(0.3913 -0.9203 0.9203 0.3913 -517.458 990.4381)" class="st3" cx="490" cy="886.4" rx="0.8" ry="0.5"/>
		<ellipse transform="matrix(0.773 -0.6345 0.6345 0.773 -453.4993 518.7506)" class="st4" cx="498.1" cy="893" rx="0.9" ry="0.3"/>
		<ellipse transform="matrix(0.5 -0.866 0.866 0.5 -522.5386 878.2877)" class="st4" cx="499.4" cy="891.7" rx="0.5" ry="0.3"/>
	</g>
	<g>
		<circle class="st1" cx="680.5" cy="780.5" r="6.4"/>
		<path class="st2" d="M685.1,785.1c-2.5,2.5-6.6,2.5-9.1,0c-0.1-0.1-0.3-0.3-0.4-0.5c2.5,2.1,6.3,1.9,8.6-0.4
			c2.4-2.4,2.5-6.1,0.4-8.6c0.2,0.1,0.3,0.3,0.5,0.4C687.6,778.5,687.6,782.6,685.1,785.1z"/>
		
			<ellipse transform="matrix(0.7885 -0.6151 0.6151 0.7885 -334.1877 581.0831)" class="st3" cx="677.7" cy="776.4" rx="1.4" ry="0.5"/>
		
			<ellipse transform="matrix(0.3913 -0.9203 0.9203 0.3913 -304.8562 1095.9346)" class="st3" cx="676" cy="778.4" rx="0.8" ry="0.5"/>
		<ellipse transform="matrix(0.773 -0.6345 0.6345 0.773 -342.757 612.279)" class="st4" cx="684.1" cy="785" rx="0.9" ry="0.3"/>
		<ellipse transform="matrix(0.5 -0.866 0.866 0.5 -336.0123 985.4286)" class="st4" cx="685.4" cy="783.7" rx="0.5" ry="0.3"/>
	</g>
	<g>
		<circle class="st1" cx="730.5" cy="945.6" r="6.4"/>
		<path class="st2" d="M735,950.1c-2.5,2.5-6.6,2.5-9.1,0c-0.1-0.1-0.3-0.3-0.4-0.5c2.5,2.1,6.3,1.9,8.6-0.4
			c2.4-2.4,2.5-6.1,0.4-8.6c0.2,0.1,0.3,0.3,0.5,0.4C737.5,943.5,737.5,947.6,735,950.1z"/>
		
			<ellipse transform="matrix(0.7885 -0.6151 0.6151 0.7885 -425.1395 646.7208)" class="st3" cx="727.7" cy="941.4" rx="1.4" ry="0.5"/>
		
			<ellipse transform="matrix(0.3913 -0.9203 0.9203 0.3913 -426.3381 1242.3627)" class="st3" cx="726" cy="943.5" rx="0.8" ry="0.5"/>
		
			<ellipse transform="matrix(0.773 -0.6345 0.6345 0.773 -436.1322 681.4437)" class="st4" cx="734.1" cy="950.1" rx="0.9" ry="0.3"/>
		<ellipse transform="matrix(0.5 -0.866 0.866 0.5 -453.9724 1111.2102)" class="st4" cx="735.4" cy="948.8" rx="0.5" ry="0.3"/>
	</g>
	<g>
		<circle class="st1" cx="804.5" cy="817.1" r="6.4"/>
		<path class="st2" d="M809,821.7c-2.5,2.5-6.6,2.5-9.1,0c-0.1-0.1-0.3-0.3-0.4-0.5c2.5,2.1,6.3,1.9,8.6-0.4
			c2.4-2.4,2.5-6.1,0.4-8.6c0.2,0.1,0.3,0.3,0.5,0.4C811.5,815.1,811.5,819.2,809,821.7z"/>
		
			<ellipse transform="matrix(0.7885 -0.6151 0.6151 0.7885 -330.4741 665.0637)" class="st3" cx="801.7" cy="813" rx="1.4" ry="0.5"/>
		
			<ellipse transform="matrix(0.3913 -0.9203 0.9203 0.3913 -263.0834 1232.2728)" class="st3" cx="800" cy="815" rx="0.8" ry="0.5"/>
		
			<ellipse transform="matrix(0.773 -0.6345 0.6345 0.773 -337.8304 699.2285)" class="st4" cx="808.1" cy="821.6" rx="0.9" ry="0.3"/>
		<ellipse transform="matrix(0.5 -0.866 0.866 0.5 -305.7263 1111.0681)" class="st4" cx="809.4" cy="820.3" rx="0.5" ry="0.3"/>
	</g>
	<g>
		<circle class="st1" cx="992.5" cy="879.5" r="6.4"/>
		<path class="st2" d="M997.1,884.1c-2.5,2.5-6.6,2.5-9.1,0c-0.1-0.1-0.3-0.3-0.4-0.5c2.5,2.1,6.3,1.9,8.6-0.4
			c2.4-2.4,2.5-6.1,0.4-8.6c0.2,0.1,0.3,0.3,0.5,0.4C999.6,877.5,999.6,881.6,997.1,884.1z"/>
		
			<ellipse transform="matrix(0.7885 -0.6151 0.6151 0.7885 -329.0807 793.9326)" class="st3" cx="989.7" cy="875.4" rx="1.4" ry="0.5"/>
		
			<ellipse transform="matrix(0.3913 -0.9203 0.9203 0.3913 -206.0526 1443.314)" class="st3" cx="988" cy="877.4" rx="0.8" ry="0.5"/>
		<ellipse transform="matrix(0.773 -0.6345 0.6345 0.773 -334.7303 832.7088)" class="st4" cx="996.1" cy="884" rx="0.9" ry="0.3"/>
		<ellipse transform="matrix(0.5 -0.866 0.866 0.5 -265.7488 1305.1285)" class="st4" cx="997.4" cy="882.7" rx="0.5" ry="0.3"/>
	</g>
	<g>
		<circle class="st1" cx="1180.5" cy="834.3" r="6.4"/>
		<path class="st2" d="M1185,838.8c-2.5,2.5-6.6,2.5-9.1,0c-0.1-0.1-0.3-0.3-0.4-0.5c2.5,2.1,6.3,1.9,8.6-0.4
			c2.4-2.4,2.5-6.1,0.4-8.6c0.2,0.1,0.3,0.3,0.5,0.4C1187.5,832.2,1187.5,836.3,1185,838.8z"/>
		
			<ellipse transform="matrix(0.7885 -0.6151 0.6151 0.7885 -261.4723 899.9601)" class="st3" cx="1177.7" cy="830.1" rx="1.4" ry="0.5"/>
		
			<ellipse transform="matrix(0.3913 -0.9203 0.9203 0.3913 -49.9841 1588.7166)" class="st3" cx="1176" cy="832.1" rx="0.8" ry="0.5"/>
		
			<ellipse transform="matrix(0.773 -0.6345 0.6345 0.773 -263.3304 941.676)" class="st4" cx="1184.1" cy="838.8" rx="0.9" ry="0.3"/>
		<ellipse transform="matrix(0.5 -0.866 0.866 0.5 -132.5626 1445.2594)" class="st4" cx="1185.4" cy="837.4" rx="0.5" ry="0.3"/>
	</g>
	<g>
		<circle class="st1" cx="854" cy="710" r="6.4"/>
		<path class="st2" d="M858.5,714.5c-2.5,2.5-6.6,2.5-9.1,0c-0.1-0.1-0.3-0.3-0.4-0.5c2.5,2.1,6.3,1.9,8.6-0.4
			c2.4-2.4,2.5-6.1,0.4-8.6c0.2,0.1,0.3,0.3,0.5,0.4C861,708,861,712,858.5,714.5z"/>
		
			<ellipse transform="matrix(0.7885 -0.6151 0.6151 0.7885 -254.1116 672.8491)" class="st3" cx="851.2" cy="705.9" rx="1.4" ry="0.5"/>
		
			<ellipse transform="matrix(0.3913 -0.9203 0.9203 0.3913 -134.371 1212.6202)" class="st3" cx="849.5" cy="707.9" rx="0.8" ry="0.5"/>
		
			<ellipse transform="matrix(0.773 -0.6345 0.6345 0.773 -258.6247 706.312)" class="st4" cx="857.6" cy="714.5" rx="0.9" ry="0.3"/>
		<ellipse transform="matrix(0.5 -0.866 0.866 0.5 -188.2031 1100.3738)" class="st4" cx="858.9" cy="713.2" rx="0.5" ry="0.3"/>
	</g>
	<g>
		<circle class="st1" cx="974.5" cy="692.5" r="6.4"/>
		<path class="st2" d="M979,697c-2.5,2.5-6.6,2.5-9.1,0c-0.1-0.1-0.3-0.3-0.4-0.5c2.5,2.1,6.3,1.9,8.6-0.4c2.4-2.4,2.5-6.1,0.4-8.6
			c0.2,0.1,0.3,0.3,0.5,0.4C981.5,690.5,981.5,694.5,979,697z"/>
		
			<ellipse transform="matrix(0.7885 -0.6151 0.6151 0.7885 -217.857 743.2651)" class="st3" cx="971.7" cy="688.4" rx="1.4" ry="0.5"/>
		
			<ellipse transform="matrix(0.3913 -0.9203 0.9203 0.3913 -44.9203 1312.8591)" class="st3" cx="970" cy="690.4" rx="0.8" ry="0.5"/>
		<ellipse transform="matrix(0.773 -0.6345 0.6345 0.773 -220.1626 778.7914)" class="st4" cx="978.1" cy="697" rx="0.9" ry="0.3"/>
		<ellipse transform="matrix(0.5 -0.866 0.866 0.5 -112.7977 1195.9799)" class="st4" cx="979.4" cy="695.7" rx="0.5" ry="0.3"/>
	</g>
	<g>
		<circle class="st1" cx="1093.5" cy="627.5" r="6.4"/>
		<path class="st2" d="M1098,632c-2.5,2.5-6.6,2.5-9.1,0c-0.1-0.1-0.3-0.3-0.4-0.5c2.5,2.1,6.3,1.9,8.6-0.4c2.4-2.4,2.5-6.1,0.4-8.6
			c0.2,0.1,0.3,0.3,0.5,0.4C1100.5,625.5,1100.5,629.5,1098,632z"/>
		
			<ellipse transform="matrix(0.7885 -0.6151 0.6151 0.7885 -152.7031 802.7103)" class="st3" cx="1090.7" cy="623.4" rx="1.4" ry="0.5"/>
		
			<ellipse transform="matrix(0.3913 -0.9203 0.9203 0.3913 87.3295 1382.8052)" class="st3" cx="1089" cy="625.4" rx="0.8" ry="0.5"/>
		<ellipse transform="matrix(0.773 -0.6345 0.6345 0.773 -151.904 839.5344)" class="st4" cx="1097.1" cy="632" rx="0.9" ry="0.3"/>
		<ellipse transform="matrix(0.5 -0.866 0.866 0.5 2.994 1266.5369)" class="st4" cx="1098.4" cy="630.7" rx="0.5" ry="0.3"/>
	</g>
	<g>
		<circle class="st1" cx="1175.5" cy="487.5" r="6.4"/>
		<path class="st2" d="M1180.1,492.1c-2.5,2.5-6.6,2.5-9.1,0c-0.1-0.1-0.3-0.3-0.4-0.5c2.5,2.1,6.3,1.9,8.6-0.4
			c2.4-2.4,2.5-6.1,0.4-8.6c0.2,0.1,0.3,0.3,0.5,0.4C1182.6,485.5,1182.6,489.6,1180.1,492.1z"/>
		
			<ellipse transform="matrix(0.7885 -0.6151 0.6151 0.7885 -49.255 823.5696)" class="st3" cx="1172.7" cy="483.4" rx="1.4" ry="0.5"/>
		
			<ellipse transform="matrix(0.3913 -0.9203 0.9203 0.3913 266.0765 1373.1172)" class="st3" cx="1171" cy="485.4" rx="0.8" ry="0.5"/>
		<ellipse transform="matrix(0.773 -0.6345 0.6345 0.773 -44.4717 859.8133)" class="st4" cx="1179.1" cy="492" rx="0.9" ry="0.3"/>
		<ellipse transform="matrix(0.5 -0.866 0.866 0.5 165.2331 1267.6112)" class="st4" cx="1180.4" cy="490.7" rx="0.5" ry="0.3"/>
	</g>
	<g>
		<circle class="st1" cx="1202.5" cy="404.5" r="6.4"/>
		<path class="st2" d="M1207,409c-2.5,2.5-6.6,2.5-9.1,0c-0.1-0.1-0.3-0.3-0.4-0.5c2.5,2.1,6.3,1.9,8.6-0.4c2.4-2.4,2.5-6.1,0.4-8.6
			c0.2,0.1,0.3,0.3,0.5,0.4C1209.5,402.5,1209.5,406.5,1207,409z"/>
		
			<ellipse transform="matrix(0.7885 -0.6151 0.6151 0.7885 7.5191 822.5812)" class="st3" cx="1199.7" cy="400.4" rx="1.4" ry="0.5"/>
		
			<ellipse transform="matrix(0.3913 -0.9203 0.9203 0.3913 358.8929 1347.3768)" class="st3" cx="1198" cy="402.4" rx="0.8" ry="0.5"/>
		<ellipse transform="matrix(0.773 -0.6345 0.6345 0.773 14.3291 858.0595)" class="st4" cx="1206.1" cy="409" rx="0.9" ry="0.3"/>
		<ellipse transform="matrix(0.5 -0.866 0.866 0.5 250.6176 1249.4337)" class="st4" cx="1207.4" cy="407.7" rx="0.5" ry="0.3"/>
	</g>
	<g>
		<circle class="st1" cx="1020.5" cy="251" r="6.4"/>
		<path class="st2" d="M1025.1,255.6c-2.5,2.5-6.6,2.5-9.1,0c-0.1-0.1-0.3-0.3-0.4-0.5c2.5,2.1,6.3,1.9,8.6-0.4
			c2.4-2.4,2.5-6.1,0.4-8.6c0.2,0.1,0.3,0.3,0.5,0.4C1027.6,249,1027.6,253.1,1025.1,255.6z"/>
		
			<ellipse transform="matrix(0.7885 -0.6151 0.6151 0.7885 63.4263 678.2012)" class="st3" cx="1017.7" cy="246.9" rx="1.4" ry="0.5"/>
		
			<ellipse transform="matrix(0.3913 -0.9203 0.9203 0.3913 389.3743 1086.5221)" class="st3" cx="1016" cy="248.9" rx="0.8" ry="0.5"/>
		
			<ellipse transform="matrix(0.773 -0.6345 0.6345 0.773 70.3886 707.7745)" class="st4" cx="1024.1" cy="255.5" rx="0.9" ry="0.3"/>
		<ellipse transform="matrix(0.5 -0.866 0.866 0.5 292.5511 1015.1256)" class="st4" cx="1025.4" cy="254.2" rx="0.5" ry="0.3"/>
	</g>
	<g>
		<circle class="st1" cx="1137.5" cy="240.5" r="6.4"/>
		<path class="st2" d="M1142,245c-2.5,2.5-6.6,2.5-9.1,0c-0.1-0.1-0.3-0.3-0.4-0.5c2.5,2.1,6.3,1.9,8.6-0.4c2.4-2.4,2.5-6.1,0.4-8.6
			c0.2,0.1,0.3,0.3,0.5,0.4C1144.5,238.5,1144.5,242.5,1142,245z"/>
		
			<ellipse transform="matrix(0.7885 -0.6151 0.6151 0.7885 94.6431 747.908)" class="st3" cx="1134.7" cy="236.4" rx="1.4" ry="0.5"/>
		
			<ellipse transform="matrix(0.3913 -0.9203 0.9203 0.3913 470.2505 1187.7363)" class="st3" cx="1133" cy="238.4" rx="0.8" ry="0.5"/>
		<ellipse transform="matrix(0.773 -0.6345 0.6345 0.773 103.6229 779.5839)" class="st4" cx="1141.1" cy="245" rx="0.9" ry="0.3"/>
		<ellipse transform="matrix(0.5 -0.866 0.866 0.5 360.1458 1111.142)" class="st4" cx="1142.4" cy="243.7" rx="0.5" ry="0.3"/>
	</g>
	<g>
		<circle class="st1" cx="1294.5" cy="304.1" r="6.4"/>
		<path class="st2" d="M1299.1,308.6c-2.5,2.5-6.6,2.5-9.1,0c-0.1-0.1-0.3-0.3-0.4-0.5c2.5,2.1,6.3,1.9,8.6-0.4
			c2.4-2.4,2.5-6.1,0.4-8.6c0.2,0.1,0.3,0.3,0.5,0.4C1301.6,302.1,1301.6,306.1,1299.1,308.6z"/>
		<ellipse transform="matrix(0.7885 -0.6151 0.6151 0.7885 88.742 857.9496)" class="st3" cx="1291.7" cy="300" rx="1.4" ry="0.5"/>
		
			<ellipse transform="matrix(0.3913 -0.9203 0.9203 0.3913 507.3044 1370.9574)" class="st3" cx="1290" cy="302" rx="0.8" ry="0.5"/>
		
			<ellipse transform="matrix(0.773 -0.6345 0.6345 0.773 98.9244 893.6544)" class="st4" cx="1298.1" cy="308.6" rx="0.9" ry="0.3"/>
		<ellipse transform="matrix(0.5 -0.866 0.866 0.5 383.5822 1278.9351)" class="st4" cx="1299.4" cy="307.3" rx="0.5" ry="0.3"/>
	</g>
</g>
</svg>
