<?xml version="1.0" encoding="utf-8"?>
<!-- Generator: Adobe Illustrator 22.1.0, SVG Export Plug-In . SVG Version: 6.00 Build 0)  -->
<svg version="1.1" id="Layer_1" xmlns="http://www.w3.org/2000/svg" xmlns:xlink="http://www.w3.org/1999/xlink" x="0px" y="0px"
	 viewBox="0 0 545 545" style="enable-background:new 0 0 545 545;" xml:space="preserve">
<style type="text/css">
	.st0{fill:#A572B0;}
	.st1{fill:#996AAC;}
	.st2{fill:#42174B;}
	.st3{fill:#FFFFFF;}
	.st4{fill:#E781B4;}
</style>
<g>
	<path class="st0" d="M504,408c-22,4.6-44.4,1.4-66.9-9.4c-22-10.6-35.8-25-35.9-25.2c-2.1-2.2-5.4-2.6-7.9-0.9s-3.4,4.9-2.2,7.6
		c0.9,2,20.1,45.4,59,82.8c-46.4-10.1-86.9-66.6-87.4-67.2c-1.7-2.4-4.8-3.2-7.5-2.1c-2.7,1.2-4.2,4-3.6,6.9
		c0.4,2.1,9.9,46.3,33.7,90.5c-37.2-26.6-61.5-80.8-61.8-81.4c-1.2-2.8-4.3-4.3-7.3-3.4c-2.9,0.8-4.8,3.6-4.5,6.7
		c0.1,0.7,6.9,59.7-11.5,101.6c-2.1-50.2-16.6-93-17.3-95c-0.9-2.8-3.7-4.5-6.6-4.1s-5.1,2.7-5.4,5.6c0,0.5-2.9,33.5-16,64.5
		c-0.5,1.1-0.9,2.2-1.4,3.3c-2,4.5-4.3,9-6.8,13.3c-1.9,3.3-4,6.5-6.3,9.6c-0.5,0.6-0.9,1.2-1.4,1.8c-0.9,1.2-1.9,2.4-2.8,3.5l0,0
		c-1,1.1-2,2.2-3,3.3s-2.1,2.1-3.2,3.1l0,0c0.4-1.6,0.9-3.2,1.3-4.8c0,0,0,0,0-0.1c0.4-1.6,0.8-3.2,1.2-4.8l0,0
		c0.4-1.6,0.7-3.1,1-4.6c1.1-5,2-9.9,2.7-14.7c0.2-1.2,0.4-2.3,0.5-3.5c0.7-4.7,1.2-9.2,1.6-13.6c0.1-1.2,0.2-2.4,0.3-3.6
		c0-0.4,0.1-0.7,0.1-1.1c0.1-1.2,0.2-2.3,0.3-3.5c0-0.7,0.1-1.3,0.1-2s0.1-1.3,0.1-2c0.1-1.5,0.2-3,0.2-4.4c0-0.9,0.1-1.7,0.1-2.5
		c0.7-20.8-1-34.9-1.1-36.1c-0.4-3-2.8-5.2-5.8-5.4c-3-0.2-5.7,1.9-6.3,4.8c0,0.2-4.6,19.6-18,40c-13.8,20.8-31.5,35-52.7,42.3l0,0
		c0.5-0.6,1-1.2,1.5-1.9c1-1.3,2-2.5,3-3.8c2.4-3.2,4.7-6.4,6.7-9.6c0.7-1,1.3-2,2-3c0.6-0.9,1.1-1.8,1.6-2.6
		c0.8-1.3,1.5-2.5,2.2-3.7c0.4-0.6,0.7-1.2,1.1-1.9c1-1.8,2-3.7,2.9-5.5c4.7-9.1,8.2-17.8,10.7-25.4c0.3-1,0.7-2,1-2.9
		c1.7-5.4,2.9-10.1,3.8-14c0.2-0.7,0.3-1.4,0.4-2c0.2-1,0.4-1.9,0.6-2.8s0.3-1.6,0.4-2.3c0.1-0.5,0.1-0.9,0.2-1.3
		c0.1-0.4,0.1-0.8,0.2-1.1c0.2-1.2,0.2-1.9,0.3-2.1c0.3-3.2-1.8-6.1-4.9-6.7c-3.1-0.6-6.2,1.2-7.1,4.3c0,0.1-4,12.9-17.3,23.8
		c-12.9,10.5-30.2,15.4-51,14.5c24.5-11.5,35.7-29.8,40.8-44.8c0.2-0.7,0.5-1.4,0.7-2.1s0.4-1.5,0.6-2.2c0.2-0.6,0.3-1.3,0.5-1.9
		c0.6-2.2,1-4.5,1.4-6.6l0,0c0.2-1.1,0.4-2.2,0.5-3.2c0.1-0.6,0.2-1.2,0.2-1.7c0.2-1.8,0.4-3.6,0.5-5.2c0.2-2.3,0.2-4.4,0.2-6.3
		c59.6,26.1,145.7,3.1,149.8,1.9c4.1-1.1,90-25.3,127.9-78.2c1.5,2.5,3.3,5.4,5.6,8.4c0.4,0.5,0.7,1,1.2,1.5l0,0
		c0.4,0.5,0.8,1.1,1.3,1.6c0.1,0.1,0.1,0.2,0.2,0.2c0.5,0.6,0.9,1.1,1.4,1.7l0,0c2.7,3.1,5.8,6.3,9.3,9.3
		c12.1,10.4,31.1,20.4,58,17.7c-45.9,30.3-76.9,3.3-78.3,2c-2.3-2.2-5.9-2.2-8.3,0c-2.4,2.1-2.7,5.7-0.8,8.3
		C428.1,355.5,454.7,390.4,504,408z"/>
	<path class="st0" d="M430,111.9c-0.1,3-3.9,5.2-15.5,11.5c-2.8,1.5-6,3.2-9.5,5.2c-2.8,1.6-4,5.1-2.5,8.1
		c13.7,28.2,46.8,108.1,35.9,138.5c-1.5,4.2-3.5,8.4-5.7,12.3c-31.2,55.1-125.4,81.6-126.5,81.9c-0.2,0-2.5,0.7-6.5,1.6
		c-0.2,0-0.3,0.1-0.5,0.1s-0.3,0.1-0.5,0.1s-0.4,0.1-0.7,0.1c-0.2,0.1-0.5,0.1-0.7,0.2l-0.7,0.2c-0.8,0.2-1.7,0.4-2.5,0.5
		c-0.4,0.1-0.7,0.1-1.1,0.2s-0.8,0.2-1.2,0.2c-0.3,0.1-0.6,0.1-0.9,0.2c-2.6,0.5-5.5,1-8.6,1.6c-0.5,0.1-1,0.2-1.5,0.3
		c-1.8,0.3-3.8,0.6-5.8,0.9c-0.2,0-0.4,0.1-0.6,0.1c-0.5,0.1-1.1,0.2-1.6,0.2c-2.1,0.3-4.2,0.6-6.5,0.9c-0.4,0-0.7,0.1-1.1,0.1
		c-2.3,0.3-4.6,0.5-7,0.8c-0.7,0.1-1.4,0.1-2.1,0.2c-0.2,0-0.4,0-0.7,0.1c-0.6,0.1-1.1,0.1-1.7,0.1c-0.8,0.1-1.6,0.1-2.4,0.2
		c-1.6,0.1-3.2,0.2-4.9,0.4c-0.8,0-1.7,0.1-2.5,0.1c-2.5,0.1-5,0.3-7.6,0.3c-1,0-2,0.1-3,0.1c-3.1,0.1-6.1,0.1-9.3,0
		c-1,0-2.1,0-3.1-0.1c-1.8,0-3.6-0.1-5.3-0.2c-0.6,0-1.3-0.1-1.9-0.1c-4.6-0.3-9.2-0.7-13.8-1.4c-0.9-0.1-1.7-0.2-2.6-0.4
		c-0.8-0.1-1.5-0.2-2.3-0.4c-0.3-0.1-0.6-0.1-0.9-0.2c-0.7-0.1-1.3-0.2-2-0.4c-0.9-0.2-1.7-0.3-2.6-0.5c-1.7-0.3-3.4-0.7-5.1-1.1
		c-10.2-2.5-20-6-28.8-11c-3.9-2.3-7.7-4.8-11.2-7.7c-24.9-20.5-37.2-106.1-39.8-137.4c-0.3-3.2-3-5.7-6.3-5.6
		c-4,0.1-7.7,0.3-10.9,0.4c-13.2,0.6-17.5,0.5-19.2-2c-11.6-17.6,21-73,59.1-118.8c38.3-46,69.3-76.5,80.9-79.7
		c10.9-3,57.3,8.5,110.3,27.2C374.6,59.8,431,90.9,430,111.9z"/>
	<path class="st1" d="M138.2,207.3c6.4,101.5,46,167.2,46,167.2c-10.2-2.5-20-6-28.8-11c-3.9-2.3-7.7-4.8-11.2-7.7
		c-24.9-20.5-37.2-106.1-39.8-137.4c-0.3-3.2-3-5.7-6.3-5.6c-4,0.1-7.7,0.3-10.9,0.4c-13.2,0.6-17.5,0.5-19.2-2
		c-11.6-17.6,21-73,59.1-118.8c38.3-46,69.3-76.5,80.9-79.7C208.2,12.7,131.8,105.8,138.2,207.3z"/>
	<path class="st2" d="M544,328.4c-1.5-2.5-4.6-3.5-7.3-2.6c-2.9,1-5.7,1.9-8.4,2.7c-55,15.1-78.5-26.5-83.6-37.5
		c2-3.8,3.7-7.7,5.2-11.7c13.2-36.6-23.6-120.6-33.9-142.8c1.5-0.8,3-1.6,4.3-2.3c13.4-7.2,21.5-11.6,22-21.8
		c0.8-16.1-14.6-32.9-46.8-51.4c-29.4-16.9-63.2-29.3-72.8-32.7c-16-5.6-96.3-33.4-117.8-27.5c-18.6,5.1-57.7,48.3-87.1,83.7
		c-6.5,7.9-29.2,35.8-45.9,65.3c-18.3,32.4-22.9,54.6-14,68.1c5.6,8.5,14.8,8.1,30,7.5c1.5-0.1,3.2-0.1,4.9-0.2
		c2.5,24.3,13.7,115.4,43.7,140.1c3.3,2.7,6.8,5.2,10.4,7.4c0.5,5.4,0.9,18.2-3.7,32c-8.1,24-27.5,39.2-57.6,45
		c-2.8,0.6-4.9,3-5,5.9s1.9,5.4,4.7,6.1c45.8,10.8,72.9-1.2,87.5-13.2c0.3-0.2,0.6-0.5,0.9-0.7c-6.9,18.3-19.2,41.7-40.6,62.1
		c-1.9,1.8-2.5,4.7-1.3,7.1c1.2,2.4,3.7,3.8,6.4,3.4c33.3-4.7,61.2-22.9,80.8-52.6c3.3-5,6.1-10,8.5-14.7
		c-0.4,21.8-3.3,53-14.5,83.6c-0.9,2.4-0.2,5,1.7,6.7s4.6,2,6.9,0.9c35.2-18,50.6-63.6,57.2-93.8c5,21.6,10.5,53.6,9.2,86
		c-0.1,2.7,1.5,5.1,4,6s5.3,0.1,7-2c22.4-28.3,26.5-72.2,26.5-100.9c14.6,24.7,40.6,60.4,74.3,73.2c1.3,0.5,2.6,0.5,3.8,0.2
		c1.2-0.3,2.3-1,3.2-2.1c1.7-2.1,1.8-5,0.4-7.2c-17.6-27.1-29.2-57.4-35.9-78.6c21.1,22.6,57.6,54,97.1,51.5
		c2.5-0.2,4.7-1.8,5.5-4.3c0.8-2.4,0-5-2-6.7c-25.3-20.7-43.7-45.9-55.2-64.5c4.4,2.8,9.4,5.7,14.8,8.3c31.9,15.6,65.2,16.9,96.3,4
		c2.5-1,4-3.5,3.8-6.2s-2.2-4.9-4.8-5.5c-28.9-6.6-51.4-20.4-66.6-32.6c0.4,0.1,0.7,0.1,1.1,0.2c18.7,2.8,48.1-0.7,82-33.3
		C545.2,334,545.6,330.8,544,328.4z M104.5,218.4c-0.3-3.2-3-5.7-6.3-5.6c-4,0.1-7.7,0.3-10.9,0.4c-13.2,0.6-17.5,0.5-19.2-2
		c-11.6-17.6,21-73,59.1-118.8c38.3-46,69.3-76.5,80.9-79.7c10.9-3,57.3,8.5,110.3,27.2c56.1,19.9,112.5,51,111.5,72
		c-0.1,3-3.9,5.2-15.5,11.5c-2.8,1.5-6,3.2-9.5,5.2c-2.8,1.6-4,5.1-2.5,8.1c13.7,28.2,46.8,108.1,35.9,138.5
		c-1.5,4.2-3.5,8.4-5.7,12.3c-31.2,55.1-125.4,81.6-126.5,81.9c-0.2,0-2.5,0.7-6.5,1.6c-0.2,0-0.3,0.1-0.5,0.1s-0.3,0.1-0.5,0.1
		s-0.4,0.1-0.7,0.1c-0.2,0.1-0.5,0.1-0.7,0.2l-0.7,0.2c-0.8,0.2-1.7,0.4-2.5,0.5c-0.4,0.1-0.7,0.1-1.1,0.2s-0.8,0.2-1.2,0.2
		c-0.3,0.1-0.6,0.1-0.9,0.2c-2.6,0.5-5.5,1-8.6,1.6c-0.5,0.1-1,0.2-1.5,0.3c-1.8,0.3-3.8,0.6-5.8,0.9c-0.2,0-0.4,0.1-0.6,0.1
		c-0.5,0.1-1.1,0.2-1.6,0.2c-2.1,0.3-4.2,0.6-6.5,0.9c-0.4,0-0.7,0.1-1.1,0.1c-2.3,0.3-4.6,0.5-7,0.8c-0.7,0.1-1.4,0.1-2.1,0.2
		c-0.2,0-0.4,0-0.7,0.1c-0.6,0.1-1.1,0.1-1.7,0.1c-0.8,0.1-1.6,0.1-2.4,0.2c-1.6,0.1-3.2,0.2-4.9,0.4c-0.8,0-1.6,0.1-2.5,0.1
		c-2.5,0.1-5,0.3-7.6,0.3c-1,0-2,0.1-3,0.1c-3.1,0.1-6.1,0.1-9.3,0c-1,0-2.1,0-3.1-0.1c-1.8,0-3.6-0.1-5.3-0.2
		c-0.6,0-1.3-0.1-1.9-0.1c-4.6-0.3-9.2-0.7-13.8-1.4c-0.9-0.1-1.7-0.2-2.6-0.4c-0.8-0.1-1.5-0.2-2.3-0.4c-0.3-0.1-0.6-0.1-0.9-0.2
		c-0.7-0.1-1.3-0.2-2-0.4c-0.9-0.1-1.7-0.3-2.6-0.5c-1.7-0.3-3.4-0.7-5.1-1.1c-10.2-2.5-20-6-28.8-11c-3.9-2.3-7.7-4.8-11.2-7.7
		C119.4,335.3,107.1,249.7,104.5,218.4z M514.2,343.7c-45.9,30.2-76.8,3.3-78.3,2c0,0,0,0-0.1-0.1c-2.3-2.1-5.9-2-8.2,0
		c-2.4,2.1-2.7,5.7-0.8,8.3c1.2,1.6,27.8,36.5,77.2,54.2c-22,4.6-44.4,1.4-66.9-9.4c-19.9-9.6-33.1-22.4-35.5-24.8l-0.4-0.4l0,0
		c-2.1-2.2-5.4-2.5-7.9-0.9c-2.5,1.7-3.4,4.9-2.2,7.6c0.9,2,20.1,45.4,58.9,82.8l0,0c-42.7-9.3-80.5-58-86.6-66.1l-0.8-1.1
		c-1.7-2.4-4.8-3.2-7.5-2.1c-2.7,1.2-4.2,4-3.6,6.9c0.4,2.1,9.9,46.3,33.7,90.5c-36.6-26.2-60.7-79.1-61.7-81.4v-0.1
		c-1.2-2.8-4.3-4.3-7.3-3.4c-2.9,0.8-4.8,3.6-4.5,6.7c0.1,0.7,6.9,59.7-11.5,101.6l0,0c-2.1-50.2-16.6-92.9-17.3-95
		c-0.9-2.8-3.7-4.5-6.6-4.1s-5.1,2.7-5.4,5.6c0,0.5-2.9,33.5-16,64.5c-0.5,1.1-0.9,2.2-1.4,3.3c-2,4.5-4.3,9-6.8,13.3
		c-1.9,3.3-4,6.5-6.3,9.6c-0.5,0.6-0.9,1.2-1.4,1.8c-0.9,1.2-1.9,2.4-2.8,3.5l0,0c-1,1.1-2,2.2-3,3.3s-2.1,2.1-3.2,3.1l0,0
		c1.1-4,2.1-8,3-12c0.1-0.6,0.3-1.3,0.4-1.9c0.1-0.3,0.1-0.6,0.2-0.9c0.2-1.1,0.5-2.2,0.7-3.3c0.5-2.5,0.9-4.9,1.4-7.4
		c0.2-1,0.3-1.9,0.5-2.9c0.8-5,1.4-9.8,1.9-14.5c0.1-1.1,0.2-2.2,0.3-3.3c0.1-0.7,0.1-1.4,0.2-2.1c0.3-3.5,0.5-6.8,0.7-10.1
		c0.1-1.1,0.1-2.2,0.2-3.3c0-0.4,0-0.7,0-1.1c0-0.9,0.1-1.7,0.1-2.5c0.1-2.7,0.1-5.3,0.2-7.8c0-0.5,0-1,0-1.5c0-2.1,0-4.2,0-6.1
		c0-1.2-0.1-2.4-0.1-3.5c0-0.7,0-1.4-0.1-2c0-0.7-0.1-1.4-0.1-2.1c0-0.4,0-0.9-0.1-1.3c-0.1-1.3-0.1-2.5-0.2-3.6
		c0-0.6-0.1-1.1-0.1-1.6c0-0.4-0.1-0.8-0.1-1.1c0-0.6-0.1-1.1-0.1-1.6c-0.2-2.2-0.4-3.6-0.4-3.9c-0.4-3-2.8-5.2-5.8-5.4
		c-3-0.2-5.7,1.9-6.3,4.8c0,0.2-4.6,19.6-18,40c-13.8,20.8-31.5,35-52.7,42.3l0,0c0.5-0.6,1-1.2,1.5-1.9c1-1.3,2-2.5,3-3.8
		c2.4-3.2,4.7-6.4,6.7-9.6c0.7-1,1.3-2,2-3c0.6-0.9,1.1-1.8,1.6-2.6c0.8-1.3,1.5-2.5,2.2-3.7c0.4-0.6,0.7-1.2,1.1-1.9
		c0.5-0.9,1-1.8,1.5-2.8c0.5-0.9,1-1.8,1.4-2.7c4.7-9.1,8.2-17.8,10.7-25.4c0.3-1,0.7-2,1-2.9c1.7-5.4,2.9-10.1,3.8-14
		c0.2-0.7,0.3-1.4,0.4-2c0.2-1,0.4-1.9,0.6-2.8s0.3-1.6,0.4-2.3c0.1-0.5,0.1-0.9,0.2-1.3c0.1-0.4,0.1-0.8,0.2-1.1
		c0.2-1.2,0.2-1.9,0.3-2.1l0,0c0.3-3.1-1.8-6-4.9-6.7c-3.1-0.6-6.2,1.2-7.1,4.3c0,0.1-4,12.9-17.3,23.8
		c-12.9,10.5-30.2,15.4-51,14.5c24.5-11.5,35.7-29.8,40.8-44.8c0.2-0.7,0.5-1.4,0.7-2.1s0.4-1.5,0.6-2.2c0.2-0.6,0.3-1.3,0.5-1.9
		c0.6-2.2,1-4.5,1.4-6.6l0,0c0.2-0.9,0.3-1.8,0.4-2.6c0-0.2,0.1-0.4,0.1-0.6c0.1-0.6,0.2-1.2,0.2-1.7c0.2-1.8,0.4-3.6,0.5-5.2
		c0.2-2.3,0.2-4.4,0.2-6.3c59.6,26.1,145.7,3.1,149.8,1.9c4.1-1.1,90-25.3,127.9-78.2c1.5,2.5,3.3,5.4,5.6,8.4
		c0.4,0.5,0.7,1,1.2,1.5l0,0c0.4,0.5,0.8,1.1,1.3,1.6c0.1,0.1,0.1,0.2,0.2,0.2c0.5,0.6,0.9,1.1,1.4,1.7l0,0c2.7,3.1,5.8,6.3,9.3,9.3
		C468.3,336.3,487.3,346.3,514.2,343.7C514.2,343.6,514.2,343.6,514.2,343.7z"/>
	<path class="st2" d="M167,199.4c-21.3,5.8-33.8,27.9-28,49.2s27.9,33.8,49.2,28c21.3-5.8,33.8-27.9,28-49.2
		C210.3,206.1,188.3,193.6,167,199.4z M155.9,256.7c-5.1-0.8-8-9.8-6.5-20.2s6.9-18.3,12.1-17.5c5.1,0.8,8,9.8,6.5,20.2
		C166.4,249.6,161,257.4,155.9,256.7z M194.3,262.9c-7.9,4.4-16.1,4.9-18.3,1s2.4-10.7,10.3-15.1c7.9-4.4,16.1-4.9,18.3-1
		C206.8,251.7,202.2,258.5,194.3,262.9z M192,232.8c-6,1.6-12.2-1.9-13.8-7.9s1.9-12.2,7.9-13.8s12.2,1.9,13.8,7.9
		S198,231.2,192,232.8z"/>
	<path class="st3" d="M194.3,262.9c-7.9,4.4-16.1,4.9-18.3,1s2.4-10.7,10.3-15.1c7.9-4.4,16.1-4.9,18.3-1
		C206.8,251.7,202.2,258.5,194.3,262.9z"/>
	<path class="st3" d="M167.9,239.2c-1.5,10.4-6.9,18.3-12.1,17.5c-5.1-0.8-8-9.8-6.5-20.2s6.9-18.3,12.1-17.5
		C166.6,219.7,169.5,228.7,167.9,239.2z"/>
	<path class="st3" d="M199.8,219c1.6,6-1.9,12.2-7.9,13.8s-12.2-1.9-13.8-7.9s1.9-12.2,7.9-13.8S198.2,213,199.8,219z"/>
	<path class="st2" d="M338.9,152.2c-21.3,5.8-33.8,27.9-28,49.2s27.9,33.8,49.2,28c21.3-5.8,33.8-27.9,28-49.2
		C382.2,158.9,360.2,146.4,338.9,152.2z M327.8,209.5c-5.1-0.8-8-9.8-6.5-20.2s6.9-18.3,12.1-17.5c5.1,0.8,8,9.8,6.5,20.2
		C338.3,202.4,332.9,210.2,327.8,209.5z M366.2,215.7c-7.9,4.4-16.1,4.9-18.3,1c-2.2-3.9,2.4-10.7,10.3-15.1
		c7.9-4.4,16.1-4.9,18.3-1C378.7,204.5,374.1,211.3,366.2,215.7z M363.9,185.6c-6,1.6-12.2-1.9-13.8-7.9c-1.6-6,1.9-12.2,7.9-13.8
		s12.2,1.9,13.8,7.9C373.4,177.8,369.9,184,363.9,185.6z"/>
	<path class="st3" d="M365.9,216.7c-8.1,4.6-16.6,5-18.8,1c-2.3-4,2.5-11,10.6-15.6s16.6-5,18.8-1
		C378.8,205.1,374,212.1,365.9,216.7z"/>
	<path class="st3" d="M371.6,171.4c1.7,6.2-1.9,12.6-8.1,14.2c-6.2,1.7-12.6-1.9-14.2-8.1s1.9-12.5,8.1-14.2
		C363.6,161.6,369.9,165.2,371.6,171.4z"/>
	<path class="st3" d="M339.9,192c-1.5,10.4-6.9,18.3-12.1,17.5c-5.1-0.8-8-9.8-6.5-20.2s6.9-18.3,12.1-17.5
		C338.5,172.5,341.4,181.5,339.9,192z"/>
	<path class="st2" d="M273,248.7c-12.8,3.5-26-4-29.5-16.6c-0.9-3.3,1-6.7,4.3-7.6c3.3-0.9,6.7,1,7.6,4.3c1.7,6.1,8.1,9.7,14.3,8
		c6.2-1.7,9.9-8.1,8.2-14.2c-0.9-3.3,1-6.7,4.3-7.6c3.3-0.9,6.7,1,7.6,4.3C293.3,232,285.7,245.2,273,248.7z"/>
	<path class="st4" d="M173.7,313.3c-1.2,0.3-2.6,0.3-3.9-0.2c-3.2-1.3-4.7-4.8-3.5-8l5.4-13.6c1.3-3.2,4.8-4.7,8-3.5
		c3.2,1.3,4.7,4.8,3.5,8l-5.4,13.6C177,311.5,175.5,312.8,173.7,313.3z"/>
	<path class="st4" d="M192.3,308.2c-1.2,0.3-2.6,0.3-3.9-0.2c-3.2-1.3-4.7-4.8-3.5-8l5.4-13.6c1.3-3.2,4.8-4.7,8-3.5
		c3.2,1.3,4.7,4.8,3.5,8l-5.4,13.6C195.7,306.4,194.1,307.7,192.3,308.2z"/>
	<path class="st4" d="M210.9,303.1c-1.2,0.3-2.6,0.3-3.9-0.2c-3.2-1.3-4.7-4.8-3.5-8l5.4-13.6c1.3-3.2,4.8-4.7,8-3.5
		c3.2,1.3,4.7,4.8,3.5,8l-5.4,13.6C214.3,301.3,212.7,302.6,210.9,303.1z"/>
	<path class="st4" d="M345.6,266.1c-1.2,0.3-2.6,0.3-3.9-0.2c-3.2-1.3-4.7-4.8-3.5-8l5.4-13.6c1.3-3.2,4.8-4.7,8-3.5
		c3.2,1.3,4.7,4.8,3.5,8l-5.4,13.6C348.9,264.3,347.4,265.6,345.6,266.1z"/>
	<path class="st4" d="M364.2,261c-1.2,0.3-2.6,0.3-3.9-0.2c-3.2-1.3-4.7-4.8-3.5-8l5.4-13.6c1.3-3.2,4.8-4.7,8-3.5
		c3.2,1.3,4.7,4.8,3.5,8l-5.4,13.6C367.6,259.2,366,260.5,364.2,261z"/>
	<path class="st4" d="M382.9,255.9c-1.2,0.3-2.6,0.3-3.9-0.2c-3.2-1.3-4.7-4.8-3.5-8l5.4-13.6c1.3-3.2,4.8-4.7,8-3.5
		c3.2,1.3,4.7,4.8,3.5,8l-5.4,13.6C386.2,254.1,384.7,255.4,382.9,255.9z"/>
	<g>
		<path class="st1" d="M178.9,400.5c-6.3-1.1-12.6,2.5-14.7,8.5c-11.8,32.8-50.1,44.4-50.1,44.4c24.5-11.5,35.7-29.8,40.8-44.8
			c0.2-0.7,0.5-1.4,0.7-2.1s0.4-1.5,0.6-2.2c0.2-0.6,0.3-1.3,0.5-1.9c0.6-2.2,1-4.5,1.4-6.6l0,0c0.2-0.9,0.3-1.8,0.4-2.6
			c0-0.2,0.1-0.4,0.1-0.6c0.1-0.6,0.2-1.2,0.2-1.7c0.2-1.8,0.4-3.6,0.5-5.2c0.2-2.3,0.2-4.4,0.2-6.3c59.6,26.1,145.7,3.1,149.8,1.9
			c4.1-1.1,90-25.3,127.9-78.2c1.5,2.5,3.3,5.4,5.6,8.4c0.4,0.5,0.7,1,1.2,1.5l0,0c0.4,0.5,0.8,1.1,1.3,1.6c0.1,0.1,0.1,0.2,0.2,0.2
			c0.5,0.6,0.9,1.1,1.4,1.7l0,0c0,0-2.3,2.6-6.8,6.9c-4.9,4.6-4.6,12.5,0.7,16.7c28.8,23.3,71.7,4.3,73.5,3.5
			c-45.9,30.2-76.8,3.3-78.3,2c0,0,0,0-0.1-0.1c-0.5-0.5-3.2-3.1-5.8-6c-2.1-2.3-5.6-2.6-8-0.7c-4.7,3.6-10,7.6-15.9,11.6
			c-4.9,3.3-5.9,10.2-2.1,14.7C440.4,408.3,504,408,504,408c-22,4.6-44.4,1.4-66.9-9.4c-19.9-9.6-33.1-22.4-35.5-24.8
			c-0.1-0.1-0.1-0.2-0.2-0.2l-0.2-0.2l0,0c-0.3-0.4-4-5.1-6.8-9c-1.8-2.4-5.1-3.1-7.7-1.6c-4.2,2.4-8.5,4.8-13.1,7.2
			c-5.4,2.8-7.4,9.5-4.5,14.8c20.7,37.3,79,76.8,80.9,78.1l0,0c-42.7-9.3-80.6-58-86.6-66.1l-0.8-1.1c0,0-4.5-7.6-7.2-13.1
			c-0.9-1.9-3.1-2.7-5-1.9c-5,2.1-10.1,4.1-15.4,6c-4.4,1.6-6.8,6.3-5.3,10.8c15.4,47,55.6,93.5,55.6,93.5
			c-36.6-26.2-60.7-79.1-61.7-81.4v-0.1l-4.9-13.4c-0.7-2.1-2.9-3.2-5-2.6l-0.7,0.2c-5.9,1.6-11.3,3-16.8,4.1
			c-4.7,1-8.6,5.6-7.4,10.2c15.6,64.1,11.6,106.2,11.6,106.2c-2.1-50.2-16.6-92.9-17.3-95l-2.9-12.2c-0.8-3.4-4.1-5.6-7.5-5.2
			c-5.5,0.7-10.8,1.3-16,1.8c-5.4,0.4-9.3,5.2-8.7,10.5c6.2,53.1-17.6,109-17.6,109l0,0c1.1-4,2.1-8,3-12c0.1-0.6,0.3-1.3,0.4-1.9
			c0.1-0.3,0.1-0.6,0.2-0.9c0.2-1.1,0.5-2.2,0.7-3.3c0.5-2.5,0.9-4.9,1.4-7.4c0.2-1,0.3-1.9,0.5-2.9c0.8-5,1.4-9.8,1.9-14.5
			c0.1-1.1,0.2-2.2,0.3-3.3c0.1-0.7,0.1-1.4,0.2-2.1c0.3-3.5,0.5-6.8,0.7-10.1c0.1-1.1,0.1-2.2,0.2-3.3c0-0.4,0-0.7,0-1.1
			c0-0.9,0.1-1.7,0.1-2.5c0.1-2.7,0.1-5.3,0.2-7.8c0-0.5,0-1,0-1.5c0-2.1,0-4.2,0-6.1c0-1.2-0.1-2.4-0.1-3.5c0-0.7,0-1.4-0.1-2
			c0-0.7-0.1-1.4-0.1-2.1c0-0.4,0-0.9-0.1-1.3c-0.1-1.3-0.1-2.5-0.2-3.6c0-0.6-0.1-1.1-0.1-1.6c0-0.4-0.1-0.8-0.1-1.1
			c0-0.6-0.1-1.1-0.1-1.6c-0.2-2.2-0.4-3.6-0.4-3.9c0,0-0.7-6.2-1.2-11.4c-0.3-3.3-3.1-5.8-6.4-5.7c-5.6,0-11-0.1-16-0.4
			c-4.9-0.2-9.1,3.2-9.9,8c-10.2,61.9-49.3,91.2-49.3,91.2c0.5-0.6,1-1.2,1.5-1.9c1-1.3,2-2.5,3-3.8c2.4-3.2,4.7-6.4,6.7-9.6
			c0.7-1,1.3-2,2-3c0.6-0.9,1.1-1.8,1.6-2.6c0.8-1.3,1.5-2.5,2.2-3.7c0.4-0.6,0.7-1.2,1.1-1.9c0.5-0.9,1-1.8,1.5-2.8
			c0.5-0.9,1-1.8,1.4-2.7c4.7-9.1,8.2-17.8,10.7-25.4c0.3-1,0.7-2,1-2.9c1.7-5.4,2.9-10.1,3.8-14c0.2-0.7,0.3-1.4,0.4-2
			c0.2-1,0.4-1.9,0.6-2.8s0.3-1.6,0.4-2.3c0.1-0.5,0.1-0.9,0.2-1.3c0.1-0.4,0.1-0.8,0.2-1.1c0.2-1.2,0.2-1.9,0.3-2.1l0,0
			c0.1-0.4,0.8-4.1,1.4-7.9c0.6-3.7-1.9-7.1-5.6-7.6L178.9,400.5z"/>
	</g>
</g>
</svg>
